<?xml version="1.0" encoding="UTF-8"?>
<svg id="Layer_1" data-name="Layer 1" xmlns="http://www.w3.org/2000/svg" version="1.1" viewBox="0 0 852.6 190.4">
  <defs>
    <style>
      .cls-1 {
        fill: #000;
      }

      .cls-1, .cls-2 {
        stroke-width: 0px;
      }

      .cls-2 {
        fill: none;
      }
    </style>
  </defs>
  <rect class="cls-2" width="852.6" height="190.4"/>
  <g>
    <rect class="cls-1" x="449.3" y="16.6" width="1.3" height="157.2"/>
    <g>
      <g>
        <path class="cls-1" d="M642.9,83.9v-13.9h8.9v1.9h-6.7v4h6.1v1.9h-6.1v6.1h-2.2Z"/>
        <path class="cls-1" d="M661.2,82.1h0c-.4,1.1-1.3,2-3,2s-3.5-1.4-3.5-3.9v-6.6h2.2v6.3c0,1.6.7,2.4,2.1,2.4s2.2-.6,2.2-1.8v-7h2.2v10.3h-2.2v-1.8h0Z"/>
        <path class="cls-1" d="M666.7,83.9v-10.3h2.2v1.8h0c.4-1.1,1.3-2,3-2s3.5,1.4,3.5,3.9v6.6h-2.2v-6.3c0-1.6-.7-2.4-2.1-2.4s-2.2.6-2.2,1.8v7h-2.2Z"/>
        <path class="cls-1" d="M685.2,82.1h0c-.6,1.2-1.6,2-3.1,2-2.4,0-4-1.8-4-5.4s1.5-5.4,4-5.4,2.5.8,3.1,2h0v-6.2h2.2v14.7h-2.2v-1.8h0ZM685.2,80.4v-3.4c0-1.3-1.1-1.9-2.3-1.9s-2.6,1.1-2.6,2.8v1.7c0,1.7.9,2.8,2.6,2.8s2.3-.6,2.3-1.9h0Z"/>
        <path class="cls-1" d="M698.8,83.9c-1.2,0-1.8-.7-2-1.7h0c-.4,1.2-1.5,2-3.1,2s-3.5-1.2-3.5-3.1,1.5-3.1,4.5-3.1h2v-.8c0-1.4-.7-2.1-2.2-2.1s-2.1.6-2.7,1.4l-1.3-1.1c.6-1.1,2-2.1,4.1-2.1s4.2,1.3,4.2,3.7v5.2h1.3v1.7h-1.3ZM696.6,80.8v-1.5h-1.9c-1.6,0-2.3.5-2.3,1.4v.4c0,.9.7,1.4,1.9,1.4s2.4-.7,2.4-1.7h-.1Z"/>
        <path class="cls-1" d="M711.3,75.8l-1.7.9c-.4-1-1.1-1.6-2.3-1.6s-2.6,1.1-2.6,2.7v1.7c0,1.6.9,2.7,2.6,2.7s2-.6,2.5-1.6l1.6,1c-.6,1.4-1.9,2.4-4,2.4l-.2.9h.9c.8,0,1.4.4,1.4,1.3s-1.1,1.7-2.4,1.7-1.9-.5-2.2-.8l.8-.9c.2.3.7.6,1.3.6s.9-.2.9-.6-.2-.7-1.4-.8h-.5l.3-1.4c-2.5-.4-3.9-2.4-3.9-5.3s1.8-5.4,4.9-5.4,3.4,1,4,2.4h0Z"/>
        <path class="cls-1" d="M722.7,83.9c-1.2,0-1.8-.7-2-1.7h0c-.4,1.2-1.5,2-3.1,2s-3.5-1.2-3.5-3.1,1.5-3.1,4.5-3.1h2v-.8c0-1.4-.7-2.1-2.2-2.1s-2.1.6-2.7,1.4l-1.3-1.1c.6-1.1,2-2.1,4.1-2.1s4.2,1.3,4.2,3.7v5.2h1.3v1.7h-1.3ZM718.5,71.4c-.6-.3-1.1-.5-1.5-.5s-.8.2-1.2.5l-.8-1c.4-.6,1.1-1.1,2-1.1s1.1.2,1.5.5c.6.3,1.1.5,1.5.5s.8-.2,1.2-.5l.8,1c-.4.6-1.1,1.1-2,1.1s-1.1-.2-1.5-.5ZM720.5,80.8v-1.5h-1.9c-1.6,0-2.3.5-2.3,1.4v.4c0,.9.7,1.4,1.9,1.4s2.4-.7,2.4-1.7h-.1Z"/>
        <path class="cls-1" d="M725.9,78.7c0-3.3,1.8-5.4,4.9-5.4s4.9,2.1,4.9,5.4-1.8,5.4-4.9,5.4-4.9-2.1-4.9-5.4ZM733.4,79.5v-1.6c0-1.9-1-2.9-2.6-2.9s-2.6,1-2.6,2.9v1.6c0,1.9,1,2.9,2.6,2.9s2.6-1,2.6-2.9Z"/>
        <path class="cls-1" d="M642.7,97.5h2.2v1.8h0c.6-1.2,1.6-2,3.1-2,2.4,0,4,1.8,4,5.4s-1.5,5.4-4,5.4-2.5-.8-3.1-2h0v5.7h-2.2v-14.3h0ZM649.8,103.5v-1.7c0-1.7-.9-2.8-2.6-2.8s-2.3.6-2.3,1.9v3.4c0,1.3,1.1,1.9,2.3,1.9s2.6-1.1,2.6-2.8h0Z"/>
        <path class="cls-1" d="M662.9,107.8c-1.2,0-1.8-.7-2-1.7h0c-.4,1.2-1.5,2-3.1,2s-3.5-1.2-3.5-3.1,1.5-3.1,4.5-3.1h2v-.8c0-1.4-.7-2.1-2.2-2.1s-2.1.6-2.7,1.4l-1.3-1.1c.6-1.1,2-2.1,4.1-2.1s4.2,1.3,4.2,3.7v5.2h1.3v1.7h-1.3ZM660.8,104.7v-1.5h-1.9c-1.6,0-2.3.5-2.3,1.4v.4c0,.9.7,1.4,1.9,1.4s2.4-.7,2.4-1.7h-.1Z"/>
        <path class="cls-1" d="M666.6,106h2.7v-6.8h-2.7v-1.8h4.9v2.7h0c.4-1.4,1.3-2.7,3.4-2.7h1.2v2.1h-2c-1.8,0-2.7,1.2-2.7,2.6v3.8h3.7v1.8h-8.6v-1.8h0Z"/>
        <path class="cls-1" d="M686.8,107.8c-1.2,0-1.8-.7-2-1.7h0c-.4,1.2-1.5,2-3.1,2s-3.5-1.2-3.5-3.1,1.5-3.1,4.5-3.1h2v-.8c0-1.4-.7-2.1-2.2-2.1s-2.1.6-2.7,1.4l-1.3-1.1c.6-1.1,2-2.1,4.1-2.1s4.2,1.3,4.2,3.7v5.2h1.3v1.7h-1.3ZM684.7,104.7v-1.5h-1.9c-1.6,0-2.3.5-2.3,1.4v.4c0,.9.7,1.4,1.9,1.4s2.4-.7,2.4-1.7h-.1Z"/>
        <path class="cls-1" d="M710.7,107.8c-1.2,0-1.8-.7-2-1.7h0c-.4,1.2-1.5,2-3.1,2s-3.5-1.2-3.5-3.1,1.5-3.1,4.5-3.1h2v-.8c0-1.4-.7-2.1-2.2-2.1s-2.1.6-2.7,1.4l-1.3-1.1c.6-1.1,2-2.1,4.1-2.1s4.2,1.3,4.2,3.7v5.2h1.3v1.7h-1.3ZM708.6,104.7v-1.5h-1.9c-1.6,0-2.3.5-2.3,1.4v.4c0,.9.7,1.4,1.9,1.4s2.4-.7,2.4-1.7h-.1Z"/>
        <path class="cls-1" d="M726,100.8c0-4.6,1.7-7.2,5.2-7.2s3.9,1.6,4.6,3.4l-2,.7c-.4-1.3-1-2.3-2.6-2.3s-2.8,1.6-2.8,4.2v2.3c0,2.6.9,4.2,2.8,4.2s2.2-1,2.6-2.3l2,.7c-.6,1.9-1.9,3.4-4.6,3.4s-5.2-2.6-5.2-7.2h0Z"/>
        <path class="cls-1" d="M738.8,106h3.5v-6.8h-3.5v-1.8h5.7v8.5h3.3v1.8h-9v-1.8h0ZM741.9,94.4v-.4c0-.7.4-1.2,1.5-1.2s1.5.5,1.5,1.2v.4c0,.7-.4,1.2-1.5,1.2s-1.5-.5-1.5-1.2Z"/>
        <path class="cls-1" d="M749.9,102.7c0-3.3,1.9-5.4,4.8-5.4s4.7,2.1,4.7,5.1v.8h-7.4v.3c0,1.6,1.1,2.8,2.8,2.8s2.3-.6,2.8-1.6l1.3,1.2c-.7,1.2-2.1,2.1-4.2,2.1-3.2,0-5-2.1-5-5.4h.2ZM755.8,92.4l2.4,3-1.2.8-2.3-2.3-2.4,2.3-1.1-.8,2.4-3h2.2,0ZM752.1,101.7h0c0,0,5.2,0,5.2,0v-.2c0-1.6-1-2.7-2.5-2.7s-2.7,1.1-2.7,2.7h0Z"/>
        <path class="cls-1" d="M762.4,107.8v-10.3h2.2v1.8h0c.4-1.1,1.3-2,3-2s3.5,1.4,3.5,3.9v6.6h-2.2v-6.3c0-1.6-.7-2.4-2.1-2.4s-2.2.6-2.2,1.8v7h-2.2Z"/>
        <path class="cls-1" d="M774.1,102.6c0-3.3,1.8-5.4,4.9-5.4s3.4,1,4,2.4l-1.7.9c-.4-1-1.1-1.6-2.3-1.6s-2.6,1.1-2.6,2.7v1.7c0,1.6.9,2.7,2.6,2.7s2-.6,2.5-1.6l1.6,1c-.7,1.4-2,2.4-4.1,2.4-3.1,0-4.9-2.1-4.9-5.4h0v.2Z"/>
        <path class="cls-1" d="M786.6,106h3.5v-6.8h-3.5v-1.8h5.7v8.5h3.3v1.8h-9v-1.8h0ZM789.7,94.4v-.4c0-.7.4-1.2,1.5-1.2s1.5.5,1.5,1.2v.4c0,.7-.4,1.2-1.5,1.2s-1.5-.5-1.5-1.2Z"/>
        <path class="cls-1" d="M806.3,107.8c-1.2,0-1.8-.7-2-1.7h0c-.4,1.2-1.5,2-3.1,2s-3.5-1.2-3.5-3.1,1.5-3.1,4.5-3.1h2v-.8c0-1.4-.7-2.1-2.2-2.1s-2.1.6-2.7,1.4l-1.3-1.1c.6-1.1,2-2.1,4.1-2.1s4.2,1.3,4.2,3.7v5.2h1.3v1.7h-1.3ZM804.2,104.7v-1.5h-1.9c-1.6,0-2.3.5-2.3,1.4v.4c0,.9.7,1.4,1.9,1.4s2.4-.7,2.4-1.7h-.1Z"/>
        <path class="cls-1" d="M642.4,126.6c0-3.3,1.9-5.4,4.8-5.4s4.7,2.1,4.7,5.1v.8h-7.4v.3c0,1.6,1.1,2.8,2.8,2.8s2.3-.6,2.8-1.6l1.3,1.2c-.7,1.2-2.1,2.1-4.2,2.1-3.2,0-5-2.1-5-5.4h.2ZM644.5,125.6h0c0,0,5.2,0,5.2,0v-.2c0-1.6-1-2.7-2.5-2.7s-2.7,1.1-2.7,2.7h0Z"/>
        <path class="cls-1" d="M674.9,131.7c-1.2,0-1.8-.7-2-1.7h0c-.4,1.2-1.5,2-3.1,2s-3.5-1.2-3.5-3.1,1.5-3.1,4.5-3.1h2v-.8c0-1.4-.7-2.1-2.2-2.1s-2.1.6-2.7,1.4l-1.3-1.1c.6-1.1,2-2.1,4.1-2.1s4.2,1.3,4.2,3.7v5.2h1.3v1.7h-1.3ZM672.7,128.6v-1.5h-1.9c-1.6,0-2.3.5-2.3,1.4v.4c0,.9.7,1.4,1.9,1.4s2.4-.7,2.4-1.7h-.1Z"/>
        <path class="cls-1" d="M696.1,119.7v12h-2.2v-12h-4.4v-1.9h11v1.9h-4.4,0Z"/>
        <path class="cls-1" d="M702.1,126.6c0-3.3,1.9-5.4,4.8-5.4s4.7,2.1,4.7,5.1v.8h-7.4v.3c0,1.6,1.1,2.8,2.8,2.8s2.3-.6,2.8-1.6l1.3,1.2c-.7,1.2-2.1,2.1-4.2,2.1-3.2,0-5-2.1-5-5.4h.2ZM704.3,125.6h0c0,0,5.2,0,5.2,0v-.2c0-1.6-1-2.7-2.5-2.7s-2.7,1.1-2.7,2.7h0Z"/>
        <path class="cls-1" d="M714.3,126.6c0-3.3,1.8-5.4,4.9-5.4s3.4,1,4,2.4l-1.7.9c-.4-1-1.1-1.6-2.3-1.6s-2.6,1.1-2.6,2.7v1.7c0,1.6.9,2.7,2.6,2.7s2-.6,2.5-1.6l1.6,1c-.7,1.4-2,2.4-4.1,2.4-3.1,0-4.9-2.1-4.9-5.4h0v.2Z"/>
        <path class="cls-1" d="M726.5,131.7v-10.3h2.2v1.8h0c.4-1.1,1.3-2,3-2s3.5,1.4,3.5,3.9v6.6h-2.2v-6.3c0-1.6-.7-2.4-2.1-2.4s-2.2.6-2.2,1.8v7h-2.2Z"/>
        <path class="cls-1" d="M737.9,126.6c0-3.3,1.8-5.4,4.9-5.4s4.9,2.1,4.9,5.4-1.8,5.4-4.9,5.4-4.9-2.1-4.9-5.4ZM745.4,127.3v-1.6c0-1.9-1-2.9-2.6-2.9s-2.6,1-2.6,2.9v1.6c0,1.9,1,2.9,2.6,2.9s2.6-1,2.6-2.9Z"/>
        <path class="cls-1" d="M750.2,129.9h3.4v-11.2h-3.4v-1.8h5.6v13h3.4v1.8h-9v-1.8h0Z"/>
        <path class="cls-1" d="M761.8,126.6c0-3.3,1.8-5.4,4.9-5.4s4.9,2.1,4.9,5.4-1.8,5.4-4.9,5.4-4.9-2.1-4.9-5.4ZM769.3,127.3v-1.6c0-1.9-1-2.9-2.6-2.9s-2.6,1-2.6,2.9v1.6c0,1.9,1,2.9,2.6,2.9s2.6-1,2.6-2.9Z"/>
        <path class="cls-1" d="M778.6,135.9c-3.5,0-4.8-.9-4.8-2.5s.7-1.7,1.8-2v-.2c-.7-.3-1.1-.7-1.1-1.5s.8-1.5,1.8-1.7h0c-1.2-.7-2-1.8-2-3.2,0-2.2,1.7-3.6,4.2-3.6s1.4,0,1.9.3v-.3c0-.8.5-1.4,1.4-1.4h1.9v1.7h-2.4v.5c.9.6,1.4,1.6,1.4,2.8,0,2.2-1.7,3.6-4.2,3.6s-.9,0-1.3-.1c-.5.1-1.1.4-1.1,1s.7.7,1.6.7h2.3c2.8,0,3.9,1.2,3.9,2.9s-1.8,3.1-5.4,3.1h0ZM780,131.8h-3.6c-.5.2-.8.6-.8,1.2s.6,1.4,2.1,1.4h1.6c1.6,0,2.5-.5,2.5-1.4s-.5-1.1-1.9-1.1h.1ZM780.6,125v-.5c0-1.1-.7-1.8-2-1.8s-2,.7-2,1.8v.5c0,1.1.7,1.8,2,1.8s2-.7,2-1.8Z"/>
        <path class="cls-1" d="M786.6,129.9h3.5v-6.8h-3.5v-1.8h5.7v8.5h3.3v1.8h-9v-1.8h0ZM789.7,118.4v-.4c0-.7.4-1.2,1.5-1.2s1.5.5,1.5,1.2v.4c0,.7-.4,1.2-1.5,1.2s-1.5-.5-1.5-1.2Z"/>
        <path class="cls-1" d="M806.3,131.7c-1.2,0-1.8-.7-2-1.7h0c-.4,1.2-1.5,2-3.1,2s-3.5-1.2-3.5-3.1,1.5-3.1,4.5-3.1h2v-.8c0-1.4-.7-2.1-2.2-2.1s-2.1.6-2.7,1.4l-1.3-1.1c.6-1.1,2-2.1,4.1-2.1s4.2,1.3,4.2,3.7v5.2h1.3v1.7h-1.3ZM804.2,128.6v-1.5h-1.9c-1.6,0-2.3.5-2.3,1.4v.4c0,.9.7,1.4,1.9,1.4s2.4-.7,2.4-1.7h-.1Z"/>
      </g>
      <g>
        <path class="cls-1" d="M525.8,89.2h15.4v6.6h-15.4v29.5h15.4v6.6h-35.6v-6.6h12.7v-29.5h-12.7v-6.6h10c1.5,0,2.7-1.2,2.7-2.7v-4.2c0-1.7.7-3.3,1.9-4.5l7.1-7.1c1.2-1.2,2.8-1.8,4.5-1.8h9.4v6.6h-15.4v13.8h0Z"/>
        <path class="cls-1" d="M562.1,68.9h16.1v6.6h-22.2v32.3h22.2v6.6h-16.1c-1.7,0-3.3-.7-4.5-1.9l-7.2-7.2c-1.2-1.2-1.9-2.8-1.9-4.5v-18.3c0-1.7.7-3.3,1.9-4.5l7.2-7.2c1.2-1.2,2.8-1.9,4.5-1.9h0Z"/>
        <path class="cls-1" d="M597.7,101.4v-25.9h-12.5v-6.6h9.7c1.5,0,2.7-1.2,2.7-2.7v-7.9h7.5v10.6h16.2v6.6h-16.2v32.3h16.2v6.6h-11.5c-1.8,0-3.6-.8-4.8-2.2l-5.8-6.6c-1-1.2-1.6-2.7-1.6-4.2h0Z"/>
        <rect class="cls-1" x="548.5" y="125.3" width="72.8" height="6.6"/>
      </g>
    </g>
    <g>
      <g>
        <path class="cls-1" d="M92.4,58.2h-47.5v12.7l24,18.7h-11.4l-11,10.9v31.3h12.7v-30.7h22.8l4.5-11.5-23.6-18.6h29.3v-12.8h.2Z"/>
        <path class="cls-1" d="M147.3,86.1v-15.1l-12.8-12.8h-24.1l-12.8,12.8v48l12.8,12.8h24.1l12.8-12.8v-15.5h-12.8v15.5h-24.1v-48h24.1v15.1s12.8,0,12.8,0Z"/>
        <path class="cls-1" d="M207.9,86.1v-15.1l-12.7-12.7h-24.1l-12.7,12.8v48l12.8,12.8h24.1l12.7-12.8v-15.5h-12.7v15.5h-24.1v-48h24.1v15.1h12.7-.1Z"/>
        <path class="cls-1" d="M231.3,82.9v48.8h-12.6V61.5l12.6-3.3,25.3,50.1v-50.1h12.6v73.5h-13.1s-24.8-48.8-24.8-48.8Z"/>
      </g>
      <g>
        <path class="cls-1" d="M289,73.1l1.5-1.4c1,1.1,2.3,1.7,4,1.7s2.7-.5,2.7-1.7-.8-1.3-1.8-1.4l-1.9-.3c-1.8-.3-3.9-.9-3.9-3.3s2-3.6,5-3.6,3.7.7,4.8,1.8l-1.4,1.4c-.6-.7-1.7-1.4-3.5-1.4s-2.5.5-2.5,1.6.8,1.3,1.8,1.4l1.9.3c1.9.3,3.9.9,3.9,3.3s-1.9,3.8-5.1,3.8-4.4-.9-5.5-2.2Z"/>
        <path class="cls-1" d="M302.6,69.3c0-3.7,2.2-6.1,5.5-6.1s5.3,2.3,5.3,5.8v.9h-8.4v.4c0,1.8,1.2,3.1,3.2,3.1s2.6-.7,3.2-1.8l1.5,1.4c-.8,1.4-2.4,2.4-4.8,2.4-3.6,0-5.7-2.4-5.7-6.1h.2ZM305.1,68.2v.2h5.8v-.2c0-1.8-1.1-3-2.8-3s-3,1.3-3,3.1h0Z"/>
        <path class="cls-1" d="M316.5,73.1h3.1v-7.7h-3.1v-2h5.6v3.1h.1c.5-1.6,1.5-3.1,3.8-3.1h1.4v2.3h-2.3c-2,0-3.1,1.3-3.1,3v4.4h4.2v2h-9.8v-2h0Z"/>
        <path class="cls-1" d="M333.6,75.1l-4.2-11.6h2.6l1.6,4.9,1.5,4.7h.1l1.5-4.7,1.6-4.9h2.5l-4.2,11.6h-3Z"/>
        <path class="cls-1" d="M344.1,73.1h4v-7.7h-4v-2h6.4v9.7h3.7v2h-10.2v-2h.1ZM347.6,60v-.5c0-.7.5-1.3,1.7-1.3s1.7.6,1.7,1.3v.5c0,.7-.5,1.3-1.7,1.3s-1.7-.6-1.7-1.3Z"/>
        <path class="cls-1" d="M367.1,65.9l-1.9,1c-.4-1.1-1.3-1.8-2.6-1.8s-2.9,1.2-2.9,3.1v1.9c0,1.8,1.1,3.1,3,3.1s2.3-.7,2.9-1.9l1.8,1.1c-.7,1.6-2.2,2.7-4.5,2.8l-.2,1h1c.9,0,1.6.5,1.6,1.5s-1.3,1.9-2.7,1.9-2.1-.5-2.5-.9l.9-1.1c.3.3.7.6,1.4.6s1-.2,1-.7-.3-.7-1.6-.9h-.6l.3-1.6c-2.8-.4-4.5-2.7-4.5-6s2.1-6.1,5.5-6.1,3.8,1.1,4.5,2.8v.2Z"/>
        <path class="cls-1" d="M370.2,69.3c0-3.7,2.1-6.1,5.5-6.1s5.5,2.4,5.5,6.1-2.1,6.1-5.5,6.1-5.5-2.4-5.5-6.1ZM378.7,70.2v-1.8c0-2.2-1.2-3.3-3-3.3s-3,1.1-3,3.3v1.8c0,2.2,1.2,3.3,3,3.3s3-1.1,3-3.3Z"/>
        <path class="cls-1" d="M383.8,73.1l1.5-1.4c1,1.1,2.3,1.7,4,1.7s2.7-.5,2.7-1.7-.8-1.3-1.8-1.4l-1.9-.3c-1.8-.3-3.9-.9-3.9-3.3s2-3.6,5-3.6,3.7.7,4.8,1.8l-1.4,1.4c-.6-.7-1.7-1.4-3.5-1.4s-2.5.5-2.5,1.6.8,1.3,1.8,1.4l1.9.3c1.9.3,3.9.9,3.9,3.3s-1.9,3.8-5.1,3.8-4.4-.9-5.5-2.2Z"/>
        <path class="cls-1" d="M297,100.2h-.1c-.7,1.4-1.8,2.3-3.5,2.3-2.7,0-4.5-2.1-4.5-6.1s1.8-6.1,4.5-6.1,2.8.9,3.5,2.3h.1v-7h2.5v16.7h-2.5v-2h0ZM297,98.3v-3.9c0-1.4-1.2-2.1-2.6-2.1s-2.9,1.2-2.9,3.1v1.9c0,1.9,1.1,3.1,2.9,3.1s2.6-.7,2.6-2.1Z"/>
        <path class="cls-1" d="M303.5,100.2h4v-7.7h-4v-2h6.4v9.7h3.7v2h-10.2v-2h.1ZM307,87.1v-.5c0-.7.5-1.3,1.7-1.3s1.7.6,1.7,1.3v.5c0,.7-.5,1.3-1.7,1.3s-1.7-.6-1.7-1.3Z"/>
        <path class="cls-1" d="M321.5,107c-4,0-5.4-1.1-5.4-2.8s.7-1.9,2-2.3v-.2c-.8-.3-1.3-.8-1.3-1.7s.9-1.7,2.1-2h0c-1.4-.8-2.2-2-2.2-3.7,0-2.5,1.9-4.1,4.7-4.1s1.6,0,2.2.4v-.4c0-.9.5-1.6,1.6-1.6h2.1v1.9h-2.7v.5c1,.7,1.6,1.8,1.6,3.2,0,2.5-1.9,4.1-4.7,4.1s-1,0-1.4,0c-.5,0-1.2.5-1.2,1.1s.8.8,1.8.8h2.6c3.1,0,4.4,1.3,4.4,3.2s-2,3.5-6.1,3.5v.2ZM323.1,102.3h-4c-.6.3-.9.7-.9,1.3,0,.9.7,1.6,2.4,1.6h1.8c1.9,0,2.9-.6,2.9-1.6s-.5-1.3-2.2-1.3h0ZM323.8,94.7v-.6c0-1.2-.7-2.1-2.3-2.1s-2.3.8-2.3,2.1v.6c0,1.2.7,2.1,2.3,2.1s2.3-.8,2.3-2.1Z"/>
        <path class="cls-1" d="M330.6,100.2h4v-7.7h-4v-2h6.4v9.7h3.7v2h-10.2v-2h.1ZM334.1,87.1v-.5c0-.7.5-1.3,1.7-1.3s1.7.6,1.7,1.3v.5c0,.7-.5,1.3-1.7,1.3s-1.7-.6-1.7-1.3Z"/>
        <path class="cls-1" d="M349.3,102.2c-2,0-3-1.2-3-3v-6.7h-3.6v-2h2.6c.9,0,1.2-.3,1.2-1.2v-2.9h2.3v4.1h5v2h-5v7.7h5v2h-4.5Z"/>
        <path class="cls-1" d="M366.5,102.2c-1.4,0-2.1-.8-2.2-2h-.1c-.5,1.4-1.7,2.2-3.5,2.2s-3.9-1.3-3.9-3.5,1.6-3.5,5.1-3.5h2.2v-.9c0-1.6-.8-2.4-2.5-2.4s-2.4.6-3,1.6l-1.5-1.2c.7-1.3,2.2-2.3,4.7-2.3s4.7,1.5,4.7,4.1v5.8h1.5v1.9h-1.5v.2ZM364.1,98.7v-1.7h-2.2c-1.8,0-2.7.6-2.7,1.6v.5c0,1,.8,1.6,2.1,1.6s2.7-.8,2.7-1.9h.1Z"/>
        <path class="cls-1" d="M371.2,100.2h4v-7.7h-4v-2h6.4v9.7h3.7v2h-10.2v-2h.1ZM374.7,87.1v-.5c0-.7.5-1.3,1.7-1.3s1.7.6,1.7,1.3v.5c0,.7-.5,1.3-1.7,1.3s-1.7-.6-1.7-1.3Z"/>
        <path class="cls-1" d="M383.8,100.2l1.5-1.4c1,1.1,2.3,1.7,4,1.7s2.7-.5,2.7-1.7-.8-1.3-1.8-1.4l-1.9-.3c-1.8-.3-3.9-.9-3.9-3.3s2-3.6,5-3.6,3.7.7,4.8,1.8l-1.4,1.4c-.6-.7-1.7-1.4-3.5-1.4s-2.5.5-2.5,1.6.8,1.3,1.8,1.4l1.9.3c1.9.3,3.9.9,3.9,3.3s-1.9,3.8-5.1,3.8-4.4-.9-5.5-2.2Z"/>
        <path class="cls-1" d="M289.4,127.3h3.7v-7.7h-3.9v-2h3.9v-2.1c0-1.7.9-3,3-3h3.9v2h-4.4v3.1h4.4v2h-4.4v7.7h3.9v2h-10.1v-2Z"/>
        <path class="cls-1" d="M302.9,123.5c0-3.7,2.1-6.1,5.5-6.1s3.8,1.1,4.5,2.8l-1.9,1c-.4-1.1-1.3-1.8-2.6-1.8s-2.9,1.2-2.9,3.1v1.9c0,1.8,1.1,3.1,3,3.1s2.3-.7,2.9-1.9l1.8,1.1c-.7,1.6-2.3,2.8-4.7,2.8-3.5,0-5.5-2.4-5.5-6.1h0Z"/>
        <path class="cls-1" d="M322.2,129.3c-2,0-3-1.2-3-3v-6.7h-3.6v-2h2.6c.9,0,1.2-.3,1.2-1.2v-2.9h2.3v4.1h5v2h-5v7.7h5v2h-4.5Z"/>
      </g>
    </g>
  </g>
</svg>