<?xml version="1.0" encoding="utf-8"?>
<!-- Generator: Adobe Illustrator 25.2.0, SVG Export Plug-In . SVG Version: 6.00 Build 0)  -->
<svg version="1.1" id="Layer_1" xmlns="http://www.w3.org/2000/svg" xmlns:xlink="http://www.w3.org/1999/xlink" x="0px" y="0px"
	 viewBox="0 0 254.8 52" style="enable-background:new 0 0 254.8 52;" xml:space="preserve">
<style type="text/css">
	.st0{fill:#666666;}
</style>
<path class="st0" d="M200.4,33.3c0.6,0,1.1,0.2,1.5,0.6c0.4,0.4,0.6,0.9,0.6,1.5s-0.2,1.1-0.6,1.5c-0.4,0.4-0.9,0.6-1.5,0.6
	s-1.1-0.2-1.5-0.6c-0.4-0.4-0.6-0.9-0.6-1.5s0.2-1.1,0.6-1.5C199.4,33.5,199.9,33.3,200.4,33.3"/>
<path class="st0" d="M21.7,22.8h-9.2L7.9,34.9c-0.3,0.9-0.5,1.4-0.5,1.6c0,0.5,0.3,0.7,1,0.7v0.3H3.8v-0.3c0.6,0,1.1-0.2,1.6-0.5
	c0.4-0.3,0.9-1.1,1.4-2.4L18,5.1h0.6l11.1,28.3c0,0.1,0.3,0.8,0.9,2.1c0.6,1.2,1.4,1.8,2.6,1.8v0.3h-7.3v-0.3c0.7,0,1-0.3,1-0.8
	c0-0.4-0.2-0.9-0.5-1.7c-0.1-0.1-0.1-0.2-0.1-0.3c0-0.2,0-0.2-0.1-0.2L21.7,22.8z M12.9,21.9h8.4L17.1,11L12.9,21.9z"/>
<path class="st0" d="M35.4,5.9V5.6h8.8c2.2,0,3.9,0.1,4.9,0.2s2,0.4,3.1,1s1.8,1.4,2.4,2.3c0.5,1,0.8,2.2,0.8,3.6
	c0,1.6-0.5,3.2-1.4,4.6s-2.3,2.7-4,3.7l2.2,3.5c0.5,0.9,1.8,2.8,3.8,5.7c2.1,2.9,3.7,4.7,4.8,5.4s2.2,1,3.3,1c1,0,2.2-0.4,3.6-1.2
	l0.1,0.4c-1.7,1.4-3.9,2.1-6.6,2.1c-1.8,0-3.3-0.5-4.6-1.6c-1.3-1.1-3.5-4.1-6.8-9l0-0.1l-3.1-5l-2.8,0.1h-2.5v12.2
	c0,1,0.1,1.7,0.4,2.1c0.3,0.4,0.9,0.6,1.8,0.6v0.3h-8v-0.3c1,0,1.6-0.3,1.8-0.7c0.3-0.4,0.4-1.2,0.4-2.4V8.8c0-0.8-0.1-1.5-0.3-2.1
	C37,6.2,36.4,5.9,35.4,5.9 M41.2,6.4v15h3.3c2.6,0,4.5-0.6,5.7-1.9c1.2-1.2,1.9-2.9,1.9-4.9c0-2-0.6-3.8-1.8-5.6
	c-1.2-1.8-3.4-2.6-6.4-2.6L41.2,6.4L41.2,6.4z"/>
<path class="st0" d="M83.2,37.5c0,0,0.2,0.2,0.6,0.5l3.3,2.4c1.8,1.3,3.4,2.4,5,3.2c1.5,0.8,3.1,1.4,4.6,1.9c1.5,0.5,3,0.7,4.6,0.7
	c0.6,0,1.4-0.1,2.4-0.2l0,0.3c-0.9,0.4-1.9,0.8-3.2,1.1c-1.2,0.3-2.2,0.4-2.8,0.4c-2.3,0-5.2-0.8-8.9-2.6c-3.7-1.7-7.1-4-10.3-7
	c-4.7,0-8.3-1.5-10.9-4.5c-2.6-3-3.9-6.4-3.9-10.2c0-2.9,0.7-5.8,2-8.6s3.3-5.2,6-7C74.3,5.9,77.5,5,81.1,5c4.4,0,8,1.4,10.7,4.1
	c2.8,2.8,4.2,6.2,4.2,10.3s-1.1,7.9-3.3,11.3C90.6,34.2,87.4,36.5,83.2,37.5 M81.1,36.4c2.1,0,4.3-0.6,6.3-1.8
	c2.1-1.2,3.7-2.8,4.9-4.9c1.2-2.1,1.8-4.2,1.8-6.4c0-3.2-0.8-6.1-2.5-8.6c-1.7-2.6-3.8-4.6-6.3-5.9c-2.6-1.4-4.9-2.1-7-2.1
	c-3.1,0-5.9,1.2-8.4,3.6c-2.5,2.4-3.8,5.4-3.8,8.9c0,4.5,1.5,8.5,4.6,12C73.8,34.7,77.2,36.4,81.1,36.4"/>
<path class="st0" d="M126.8,37.6h-5.9v-4.9c-3,3.4-6.6,5.2-10.8,5.2c-3.1,0-5.5-0.9-7.3-2.7c-1.8-1.8-2.7-4.2-2.7-7.4V8.6
	c0-1.2-0.1-1.9-0.4-2.2c-0.3-0.3-0.9-0.5-1.9-0.5V5.6h8.3v0.3c-0.9,0-1.5,0.1-1.8,0.4c-0.4,0.3-0.5,0.9-0.5,2v17.5
	c0,3.7,0.8,6.3,2.5,7.9c1.7,1.6,3.6,2.3,5.7,2.3c3.4,0,6.3-1.5,9-4.6V9.8c0-1.9-0.2-3-0.5-3.4c-0.3-0.4-0.8-0.5-1.5-0.5h-0.3V5.6
	h8.2v0.3c-1,0.1-1.7,0.2-1.9,0.5s-0.4,0.8-0.4,1.6v26c0,1,0.1,1.7,0.2,2s0.3,0.6,0.6,0.8c0.3,0.2,0.8,0.3,1.6,0.3
	C126.8,37.2,126.8,37.6,126.8,37.6z"/>
<path class="st0" d="M138.6,5.6v0.3c-0.4,0-0.9,0-1.4,0.2c-0.5,0.2-0.8,0.4-0.9,0.8s-0.1,1.1-0.1,2.4v24.5c0,1.3,0.1,2.2,0.2,2.4
	c0.1,0.3,0.3,0.5,0.6,0.7s0.9,0.3,1.6,0.3v0.3h-8.4v-0.3c1.1,0,1.7-0.2,2-0.6c0.3-0.4,0.4-1.3,0.4-2.8V9.5c0-1.5-0.1-2.5-0.4-3
	c-0.3-0.5-0.9-0.7-1.9-0.6V5.6H138.6z"/>
<path class="st0" d="M155.6,38.1h-0.4L144.1,9.9c-0.8-2-1.4-3.2-1.9-3.5c-0.5-0.3-1-0.5-1.6-0.5V5.6h7.2v0.3c-0.6,0-0.9,0.2-0.9,0.8
	c0,0.2,0,0.4,0.1,0.7l9.7,24.6l9.6-24.6c0.1-0.3,0.2-0.6,0.2-0.8c0-0.5-0.4-0.7-1.1-0.7V5.6h4.7v0.3c-0.3,0-0.7,0.1-1,0.1
	c-0.4,0.1-0.7,0.5-1.1,1.1c-0.4,0.7-0.6,1-0.6,1L155.6,38.1z"/>
<path class="st0" d="M184,5c4.4,0,7.9,1.4,10.7,4.1s4.2,6.2,4.2,10.3c0,5.3-1.6,9.7-4.8,13.3c-3.2,3.6-7.5,5.4-12.8,5.4
	c-4.3,0-7.8-1.5-10.6-4.4s-4.1-6.4-4.1-10.5c0-2.8,0.7-5.6,2-8.5c1.3-2.9,3.3-5.3,6-7.1S180.4,5,184,5 M183.9,36.4
	c2.1,0,4.3-0.6,6.3-1.8c2.1-1.2,3.7-2.8,4.9-4.9c1.2-2.1,1.8-4.2,1.8-6.4c0-3.1-0.8-5.9-2.4-8.5c-1.6-2.5-3.7-4.5-6.3-6
	s-4.9-2.2-7.1-2.2c-3.1,0-5.9,1.2-8.4,3.6s-3.8,5.4-3.8,8.9c0,4.5,1.5,8.5,4.6,12C176.6,34.7,180.1,36.4,183.9,36.4"/>
<path class="st0" d="M205.5,5.9V5.6h8.9c3.2,0,5.4,0.4,6.9,1.1c1.4,0.7,2.5,1.6,3.1,2.7c0.7,1.1,1,2.5,1,4.3c0,2.7-0.9,4.8-2.7,6.1
	c-1.8,1.4-4.3,2-7.4,2v-0.3c2,0,3.6-0.6,4.8-1.9s1.9-2.9,1.9-4.9c0-1.6-0.3-3-0.9-4.2c-0.6-1.2-1.4-2.1-2.5-2.8
	c-1.1-0.6-2.7-0.9-4.9-0.9h-2.2V34c0,1.5,0.2,2.5,0.5,2.8s0.9,0.4,1.9,0.4v0.3h-8.2v-0.3c1.5,0,2.2-0.7,2.2-2.1V8.7
	c0-1.1-0.1-1.9-0.4-2.2C207,6.1,206.4,5.9,205.5,5.9"/>
<path class="st0" d="M251,5.6l-1.4,3.7h-0.3c0.1-0.2,0.1-0.5,0.1-0.9c0-0.3-0.1-0.5-0.3-0.6s-0.6-0.1-1.1-0.1h-7.9v26.5
	c0,1.1,0.1,1.8,0.3,2.2c0.2,0.4,0.4,0.7,0.7,0.8c0.3,0.1,0.7,0.2,1.4,0.2v0.3h-8.1v-0.3c1-0.1,1.6-0.3,1.9-0.6
	c0.3-0.3,0.4-1,0.4-2.1V7.6H229c-0.8,0-1.3,0.1-1.5,0.1c-0.2,0.1-0.3,0.3-0.3,0.7c0,0.2,0.1,0.5,0.2,0.9H227l-1.5-3.7h0.3
	c0.2,0.5,0.5,0.8,0.7,0.9c0.2,0.1,0.8,0.2,1.6,0.2h20.1c0.8,0,1.4-0.1,1.7-0.2c0.4-0.1,0.6-0.4,0.8-0.9C250.7,5.6,251,5.6,251,5.6z"
	/>
</svg>
