<?xml version="1.0" encoding="utf-8"?>
<!-- Generator: Adobe Illustrator 25.2.0, SVG Export Plug-In . SVG Version: 6.00 Build 0)  -->
<svg version="1.1" id="Layer_1" xmlns="http://www.w3.org/2000/svg" xmlns:xlink="http://www.w3.org/1999/xlink" x="0px" y="0px"
	 viewBox="0 0 34.9 118.5" style="enable-background:new 0 0 34.9 118.5;" xml:space="preserve">
<style type="text/css">
	.st0{fill:#1C73BA;}
	.st1{fill:#184171;}
	.st2{fill:none;stroke:#1C73BA;stroke-width:0.5;stroke-miterlimit:10;}
</style>
<g>
	<path class="st0" d="M9.5,46.3H8.8c-0.5,0-0.9-0.4-0.9-0.9V41c0-0.5,0.4-0.9,0.9-0.9h0.6c0.5,0,0.9,0.4,0.9,0.9v4.5
		C10.3,45.9,9.9,46.3,9.5,46.3z"/>
	<path class="st0" d="M26.2,46.3h-0.6c-0.5,0-0.9-0.4-0.9-0.9V41c0-0.5,0.4-0.9,0.9-0.9h0.6c0.5,0,0.9,0.4,0.9,0.9v4.5
		C27,45.9,26.6,46.3,26.2,46.3z"/>
	<path class="st0" d="M30.8,44.8h-2.5v1.1c0,1-0.8,1.7-1.7,1.7h-1.3c-1,0-1.7-0.8-1.7-1.7v-1.1h-12v1.1c0,1-0.8,1.7-1.7,1.7H8.5
		c-1,0-1.7-0.8-1.7-1.7v-1.1H4.2c-1.9,0-3.5,1.6-3.5,3.5v26.3c0,1.9,1.6,3.5,3.5,3.5h26.6c1.9,0,3.5-1.6,3.5-3.5V48.3
		C34.3,46.4,32.7,44.8,30.8,44.8z"/>
</g>
<g>
	<path class="st1" d="M9.5,6.7H8.8C8.4,6.7,8,6.3,8,5.8V1.4c0-0.5,0.4-0.9,0.9-0.9h0.6c0.5,0,0.9,0.4,0.9,0.9v4.5
		C10.3,6.3,9.9,6.7,9.5,6.7z"/>
	<path class="st1" d="M26.2,6.7h-0.6c-0.5,0-0.9-0.4-0.9-0.9V1.4c0-0.5,0.4-0.9,0.9-0.9h0.6c0.5,0,0.9,0.4,0.9,0.9v4.5
		C27,6.3,26.6,6.7,26.2,6.7z"/>
	<path class="st1" d="M30.8,5.2h-2.5v1.1c0,1-0.8,1.7-1.7,1.7h-1.3c-1,0-1.7-0.8-1.7-1.7V5.2h-12v1.1c0,1-0.8,1.7-1.7,1.7H8.5
		c-1,0-1.7-0.8-1.7-1.7V5.2H4.2c-1.9,0-3.5,1.6-3.5,3.5v26.3c0,1.9,1.6,3.5,3.5,3.5h26.6c1.9,0,3.5-1.6,3.5-3.5V8.7
		C34.3,6.8,32.7,5.2,30.8,5.2z"/>
</g>
<g>
	<path class="st2" d="M9.5,85.9H8.8c-0.5,0-0.9-0.4-0.9-0.9v-4.5c0-0.5,0.4-0.9,0.9-0.9h0.6c0.5,0,0.9,0.4,0.9,0.9v4.5
		C10.3,85.5,9.9,85.9,9.5,85.9z"/>
	<path class="st2" d="M26.2,85.9h-0.6c-0.5,0-0.9-0.4-0.9-0.9v-4.5c0-0.5,0.4-0.9,0.9-0.9h0.6c0.5,0,0.9,0.4,0.9,0.9v4.5
		C27,85.5,26.6,85.9,26.2,85.9z"/>
	<path class="st2" d="M30.8,84.5h-2.5v1.1c0,1-0.8,1.7-1.7,1.7h-1.3c-1,0-1.7-0.8-1.7-1.7v-1.1h-12v1.1c0,1-0.8,1.7-1.7,1.7H8.5
		c-1,0-1.7-0.8-1.7-1.7v-1.1H4.2c-1.9,0-3.5,1.6-3.5,3.5v26.3c0,1.9,1.6,3.5,3.5,3.5h26.6c1.9,0,3.5-1.6,3.5-3.5V88
		C34.3,86,32.7,84.5,30.8,84.5z"/>
</g>
</svg>
