<svg width="154" height="21" viewBox="0 0 154 21" fill="none" xmlns="http://www.w3.org/2000/svg">
<path d="M15.6489 13.5264C15.4995 15.5918 14.7349 17.2178 13.355 18.4043C11.9839 19.5908 10.1733 20.1841 7.92334 20.1841C5.4624 20.1841 3.52441 19.3579 2.10938 17.7056C0.703125 16.0444 0 13.7681 0 10.8765V9.70312C0 7.85742 0.325195 6.23145 0.975586 4.8252C1.62598 3.41895 2.55322 2.34229 3.75732 1.59521C4.97021 0.839355 6.37646 0.461426 7.97607 0.461426C10.1909 0.461426 11.9751 1.05469 13.3286 2.24121C14.6821 3.42773 15.4644 5.09326 15.6753 7.23779H11.7202C11.6235 5.99854 11.2764 5.10205 10.6787 4.54834C10.0898 3.98584 9.18896 3.70459 7.97607 3.70459C6.65771 3.70459 5.66895 4.1792 5.00977 5.12842C4.35938 6.06885 4.02539 7.53223 4.00781 9.51855V10.9688C4.00781 13.043 4.31982 14.5591 4.94385 15.5171C5.57666 16.4751 6.56982 16.9541 7.92334 16.9541C9.14502 16.9541 10.0547 16.6772 10.6523 16.1235C11.2588 15.561 11.606 14.6953 11.6938 13.5264H15.6489Z" fill="#002849"/>
<path d="M21.4766 19.9204H17.6534V5.65576H21.4766V19.9204ZM17.4292 1.96436C17.4292 1.39307 17.6182 0.922852 17.9961 0.553711C18.3829 0.18457 18.9058 0 19.565 0C20.2154 0 20.7339 0.18457 21.1206 0.553711C21.5074 0.922852 21.7007 1.39307 21.7007 1.96436C21.7007 2.54443 21.503 3.01904 21.1075 3.38818C20.7207 3.75732 20.2066 3.94189 19.565 3.94189C18.9234 3.94189 18.4048 3.75732 18.0093 3.38818C17.6226 3.01904 17.4292 2.54443 17.4292 1.96436Z" fill="#002849"/>
<path d="M28.649 2.14893V5.65576H31.088V8.45068H28.649V15.5698C28.649 16.0972 28.7501 16.4751 28.9522 16.7036C29.1544 16.9321 29.5411 17.0464 30.1124 17.0464C30.5343 17.0464 30.9078 17.0156 31.233 16.9541V19.8413C30.4859 20.0698 29.7169 20.1841 28.9259 20.1841C26.254 20.1841 24.8917 18.835 24.8389 16.1367V8.45068H22.7559V5.65576H24.8389V2.14893H28.649Z" fill="#002849"/>
<path d="M40.9366 19.9204C40.7609 19.5776 40.6334 19.1514 40.5543 18.6416C39.6315 19.6699 38.4318 20.1841 36.9552 20.1841C35.5577 20.1841 34.3976 19.7798 33.4747 18.9712C32.5607 18.1626 32.1036 17.1431 32.1036 15.9126C32.1036 14.4009 32.6617 13.2407 33.7779 12.4321C34.9029 11.6235 36.5245 11.2148 38.6427 11.2061H40.3961V10.3887C40.3961 9.72949 40.2247 9.20215 39.882 8.80664C39.548 8.41113 39.0162 8.21338 38.2867 8.21338C37.6451 8.21338 37.1398 8.36719 36.7706 8.6748C36.4103 8.98242 36.2301 9.4043 36.2301 9.94043H32.42C32.42 9.11426 32.6749 8.34961 33.1847 7.64648C33.6945 6.94336 34.4152 6.39404 35.3468 5.99854C36.2784 5.59424 37.3243 5.39209 38.4845 5.39209C40.2423 5.39209 41.6354 5.83594 42.6637 6.72363C43.7008 7.60254 44.2194 8.8418 44.2194 10.4414V16.6245C44.2281 17.978 44.4171 19.002 44.7862 19.6963V19.9204H40.9366ZM37.7858 17.2705C38.3483 17.2705 38.8668 17.1475 39.3414 16.9014C39.816 16.6465 40.1676 16.3081 40.3961 15.8862V13.4341H38.9723C37.0651 13.4341 36.0499 14.0933 35.9269 15.4116L35.9137 15.6357C35.9137 16.1104 36.0807 16.5015 36.4147 16.8091C36.7486 17.1167 37.2057 17.2705 37.7858 17.2705Z" fill="#002849"/>
<path d="M51.1676 2.14893V5.65576H53.6066V8.45068H51.1676V15.5698C51.1676 16.0972 51.2687 16.4751 51.4709 16.7036C51.673 16.9321 52.0597 17.0464 52.631 17.0464C53.0529 17.0464 53.4264 17.0156 53.7516 16.9541V19.8413C53.0046 20.0698 52.2355 20.1841 51.4445 20.1841C48.7726 20.1841 47.4103 18.835 47.3576 16.1367V8.45068H45.2746V5.65576H47.3576V2.14893H51.1676Z" fill="#002849"/>
<path d="M59.2102 19.9204H55.3869V5.65576H59.2102V19.9204ZM55.1628 1.96436C55.1628 1.39307 55.3518 0.922852 55.7297 0.553711C56.1164 0.18457 56.6394 0 57.2985 0C57.9489 0 58.4675 0.18457 58.8542 0.553711C59.2409 0.922852 59.4343 1.39307 59.4343 1.96436C59.4343 2.54443 59.2365 3.01904 58.841 3.38818C58.4543 3.75732 57.9401 3.94189 57.2985 3.94189C56.6569 3.94189 56.1384 3.75732 55.7429 3.38818C55.3561 3.01904 55.1628 2.54443 55.1628 1.96436Z" fill="#002849"/>
<path d="M61.2278 12.6562C61.2278 11.2412 61.5002 9.97998 62.0452 8.87256C62.5901 7.76514 63.3723 6.9082 64.3918 6.30176C65.4202 5.69531 66.6111 5.39209 67.9646 5.39209C69.8894 5.39209 71.4582 5.98096 72.6711 7.15869C73.8928 8.33643 74.574 9.93604 74.7146 11.9575L74.741 12.9331C74.741 15.1216 74.1301 16.8794 72.9084 18.2065C71.6868 19.5249 70.0476 20.1841 67.991 20.1841C65.9343 20.1841 64.2908 19.5249 63.0603 18.2065C61.8386 16.8882 61.2278 15.0952 61.2278 12.8276V12.6562ZM65.0378 12.9331C65.0378 14.2866 65.2927 15.3237 65.8025 16.0444C66.3122 16.7563 67.0417 17.1123 67.991 17.1123C68.9138 17.1123 69.6345 16.7607 70.1531 16.0576C70.6716 15.3457 70.9309 14.2119 70.9309 12.6562C70.9309 11.3291 70.6716 10.3008 70.1531 9.57129C69.6345 8.8418 68.905 8.47705 67.9646 8.47705C67.033 8.47705 66.3122 8.8418 65.8025 9.57129C65.2927 10.292 65.0378 11.4126 65.0378 12.9331Z" fill="#002849"/>
<path d="M80.0545 5.65576L80.1731 7.30371C81.1927 6.0293 82.5594 5.39209 84.2732 5.39209C85.785 5.39209 86.91 5.83594 87.6482 6.72363C88.3865 7.61133 88.7644 8.93848 88.782 10.7051V19.9204H84.972V10.7974C84.972 9.98877 84.7962 9.4043 84.4446 9.04395C84.0931 8.6748 83.5086 8.49023 82.6912 8.49023C81.6189 8.49023 80.8147 8.94727 80.2786 9.86133V19.9204H76.4685V5.65576H80.0545Z" fill="#002849"/>
<path d="M101.241 14.9766C101.434 13.5703 100.705 12.542 99.0526 11.8916L96.7718 11.061L96.0071 10.7314C93.4407 9.5625 92.241 7.91895 92.408 5.80078C92.4959 4.7373 92.8607 3.79688 93.5023 2.97949C94.1439 2.16211 94.992 1.53369 96.0467 1.09424C97.1102 0.645996 98.2396 0.435059 99.4349 0.461426C100.595 0.487793 101.628 0.74707 102.533 1.23926C103.447 1.73145 104.141 2.42139 104.616 3.30908C105.091 4.18799 105.302 5.18115 105.249 6.28857L102.757 6.27539C102.845 5.09766 102.581 4.18799 101.966 3.54639C101.351 2.896 100.472 2.56201 99.3294 2.54443C98.1253 2.52686 97.119 2.80811 96.3104 3.38818C95.5018 3.96826 95.036 4.75928 94.9129 5.76123C94.7371 7.0708 95.5413 8.06396 97.3255 8.74072L99.2899 9.43945L100.279 9.86133C102.757 11.0039 103.904 12.7002 103.72 14.9502C103.623 16.0312 103.258 16.9673 102.625 17.7583C101.993 18.5405 101.131 19.147 100.041 19.5776C98.9603 20.0083 97.7957 20.2104 96.5477 20.1841C95.3436 20.1753 94.2405 19.9204 93.2386 19.4194C92.2454 18.9097 91.4896 18.2153 90.971 17.3364C90.4525 16.4575 90.2239 15.46 90.2855 14.3438L92.764 14.3569C92.6849 15.4995 92.9925 16.4092 93.6868 17.0859C94.39 17.7539 95.3787 18.0967 96.6531 18.1143C97.9276 18.1318 98.9779 17.855 99.804 17.2837C100.63 16.7124 101.109 15.9434 101.241 14.9766Z" fill="#002849"/>
<path d="M113.964 19.9204C113.902 19.6655 113.871 19.415 113.871 19.1689L113.911 18.4175C112.601 19.6304 111.213 20.2192 109.745 20.1841C108.488 20.1665 107.464 19.771 106.673 18.9976C105.891 18.2153 105.535 17.2397 105.605 16.0708C105.693 14.5591 106.352 13.3813 107.583 12.5376C108.822 11.6851 110.448 11.2588 112.461 11.2588L114.952 11.272L115.111 10.1382C115.199 9.28564 115.032 8.61328 114.61 8.12109C114.197 7.62012 113.573 7.36084 112.738 7.34326C111.92 7.32568 111.195 7.52783 110.562 7.94971C109.938 8.36279 109.556 8.91211 109.415 9.59766L107.016 9.61084C107.095 8.77588 107.42 8.0376 107.992 7.396C108.563 6.74561 109.297 6.24463 110.193 5.89307C111.09 5.53271 112.017 5.36133 112.975 5.37891C114.46 5.41406 115.616 5.8667 116.442 6.73682C117.268 7.59814 117.616 8.74512 117.484 10.1777L116.324 17.2441L116.258 18.2593C116.24 18.7427 116.293 19.2217 116.416 19.6963L116.39 19.9204H113.964ZM110.22 18.0747C110.984 18.0923 111.705 17.9121 112.382 17.5342C113.067 17.1475 113.656 16.6157 114.148 15.939L114.662 12.999L112.856 12.9858C111.353 12.9858 110.202 13.2231 109.402 13.6978C108.602 14.1724 108.15 14.8447 108.044 15.7148C107.965 16.3828 108.119 16.9409 108.506 17.3892C108.901 17.8286 109.473 18.0571 110.22 18.0747Z" fill="#002849"/>
<path d="M124.063 16.585L129.204 5.65576H131.723L124.537 19.9204H122.718L119.923 5.65576H122.27L124.063 16.585Z" fill="#002849"/>
<path d="M137.142 20.1841C135.366 20.1489 133.977 19.4941 132.976 18.2197C131.974 16.9453 131.552 15.3149 131.71 13.3286L131.776 12.7617C131.925 11.3467 132.343 10.0547 133.028 8.88574C133.723 7.7168 134.566 6.83789 135.56 6.24902C136.553 5.65137 137.625 5.36572 138.776 5.39209C140.244 5.42725 141.395 5.91504 142.23 6.85547C143.065 7.7959 143.522 9.07031 143.602 10.6787C143.628 11.25 143.61 11.8213 143.549 12.3926L143.404 13.4868H134.083C133.925 14.7788 134.136 15.8774 134.716 16.7827C135.305 17.688 136.179 18.1582 137.339 18.1934C138.746 18.2285 140.046 17.5957 141.242 16.2949L142.613 17.4551C142.015 18.3164 141.242 18.9932 140.292 19.4854C139.352 19.9688 138.302 20.2017 137.142 20.1841ZM138.658 7.38281C137.673 7.35645 136.812 7.69043 136.074 8.38477C135.344 9.0791 134.764 10.1118 134.333 11.4829L141.268 11.4961L141.321 11.2852C141.461 10.1777 141.281 9.25928 140.78 8.52979C140.288 7.7915 139.581 7.40918 138.658 7.38281Z" fill="#002849"/>
<path d="M153.305 7.83105L152.185 7.7124C150.655 7.7124 149.451 8.40234 148.572 9.78223L146.819 19.9204H144.433L146.911 5.65576L149.218 5.64258L148.862 7.30371C149.873 5.97656 151.064 5.33057 152.435 5.36572C152.725 5.36572 153.103 5.43164 153.569 5.56348L153.305 7.83105Z" fill="#002849"/>
</svg>
