<svg width="114" height="18" viewBox="0 0 114 18" fill="none" xmlns="http://www.w3.org/2000/svg">
<path d="M11.1885 9.7373C11.0889 11.1143 10.5791 12.1982 9.65918 12.9893C8.74512 13.7803 7.53809 14.1758 6.03809 14.1758C4.39746 14.1758 3.10547 13.625 2.16211 12.5234C1.22461 11.416 0.755859 9.89844 0.755859 7.9707V7.18848C0.755859 5.95801 0.972656 4.87402 1.40625 3.93652C1.83984 2.99902 2.45801 2.28125 3.26074 1.7832C4.06934 1.2793 5.00684 1.02734 6.07324 1.02734C7.5498 1.02734 8.73926 1.42285 9.6416 2.21387C10.5439 3.00488 11.0654 4.11523 11.2061 5.54492H8.56934C8.50488 4.71875 8.27344 4.12109 7.875 3.75195C7.48242 3.37695 6.88184 3.18945 6.07324 3.18945C5.19434 3.18945 4.53516 3.50586 4.0957 4.13867C3.66211 4.76562 3.43945 5.74121 3.42773 7.06543V8.03223C3.42773 9.41504 3.63574 10.4258 4.05176 11.0645C4.47363 11.7031 5.13574 12.0225 6.03809 12.0225C6.85254 12.0225 7.45898 11.8379 7.85742 11.4688C8.26172 11.0938 8.49316 10.5166 8.55176 9.7373H11.1885ZM11.9974 9.15723C11.9974 8.21387 12.1791 7.37305 12.5423 6.63477C12.9056 5.89648 13.4271 5.3252 14.1068 4.9209C14.7923 4.5166 15.5863 4.31445 16.4886 4.31445C17.7718 4.31445 18.8177 4.70703 19.6263 5.49219C20.4408 6.27734 20.8949 7.34375 20.9886 8.69141L21.0062 9.3418C21.0062 10.8008 20.599 11.9727 19.7845 12.8574C18.9701 13.7363 17.8773 14.1758 16.5062 14.1758C15.1351 14.1758 14.0394 13.7363 13.2191 12.8574C12.4046 11.9785 11.9974 10.7832 11.9974 9.27148V9.15723ZM14.5375 9.3418C14.5375 10.2441 14.7074 10.9355 15.0472 11.416C15.3871 11.8906 15.8734 12.1279 16.5062 12.1279C17.1214 12.1279 17.6019 11.8936 17.9476 11.4248C18.2933 10.9502 18.4662 10.1943 18.4662 9.15723C18.4662 8.27246 18.2933 7.58691 17.9476 7.10059C17.6019 6.61426 17.1156 6.37109 16.4886 6.37109C15.8675 6.37109 15.3871 6.61426 15.0472 7.10059C14.7074 7.58105 14.5375 8.32812 14.5375 9.3418ZM24.5925 4.49023L24.6716 5.55371C25.3454 4.72754 26.2566 4.31445 27.405 4.31445C28.6296 4.31445 29.4704 4.79785 29.9275 5.76465C30.5954 4.79785 31.5476 4.31445 32.7839 4.31445C33.8152 4.31445 34.5827 4.61621 35.0866 5.21973C35.5905 5.81738 35.8425 6.71973 35.8425 7.92676V14H33.2937V7.93555C33.2937 7.39648 33.1882 7.00391 32.9773 6.75781C32.7663 6.50586 32.3943 6.37988 31.8611 6.37988C31.0993 6.37988 30.572 6.74316 30.279 7.46973L30.2878 14H27.7478V7.94434C27.7478 7.39355 27.6394 6.99512 27.4226 6.74902C27.2058 6.50293 26.8366 6.37988 26.3152 6.37988C25.5945 6.37988 25.073 6.67871 24.7507 7.27637V14H22.2107V4.49023H24.5925ZM46.003 9.33301C46.003 10.7979 45.669 11.9727 45.0011 12.8574C44.3389 13.7363 43.4425 14.1758 42.3116 14.1758C41.3507 14.1758 40.5743 13.8418 39.9825 13.1738V17.6562H37.4425V4.49023H39.7979L39.8858 5.42188C40.5011 4.68359 41.3038 4.31445 42.294 4.31445C43.4659 4.31445 44.377 4.74805 45.0274 5.61523C45.6778 6.48242 46.003 7.67773 46.003 9.20117V9.33301ZM43.463 9.14844C43.463 8.26367 43.3048 7.58105 42.9884 7.10059C42.6778 6.62012 42.2237 6.37988 41.6261 6.37988C40.8292 6.37988 40.2813 6.68457 39.9825 7.29395V11.1875C40.293 11.8145 40.8468 12.1279 41.6436 12.1279C42.8565 12.1279 43.463 11.1348 43.463 9.14844ZM49.9057 14H47.3569V0.5H49.9057V14ZM56.0232 14.1758C54.6287 14.1758 53.492 13.748 52.6131 12.8926C51.74 12.0371 51.3035 10.8975 51.3035 9.47363V9.22754C51.3035 8.27246 51.4881 7.41992 51.8572 6.66992C52.2264 5.91406 52.7479 5.33398 53.4217 4.92969C54.1014 4.51953 54.8748 4.31445 55.742 4.31445C57.0428 4.31445 58.0652 4.72461 58.8094 5.54492C59.5594 6.36523 59.9344 7.52832 59.9344 9.03418V10.0713H53.8787C53.9607 10.6924 54.2068 11.1904 54.617 11.5654C55.033 11.9404 55.5574 12.1279 56.1902 12.1279C57.1688 12.1279 57.9334 11.7734 58.4842 11.0645L59.7322 12.4619C59.3514 13.001 58.8357 13.4229 58.1854 13.7275C57.535 14.0264 56.8143 14.1758 56.0232 14.1758ZM55.7332 6.37109C55.2293 6.37109 54.8191 6.54102 54.5027 6.88086C54.1922 7.2207 53.993 7.70703 53.9051 8.33984H57.4383V8.1377C57.4266 7.5752 57.2742 7.1416 56.9813 6.83691C56.6883 6.52637 56.2723 6.37109 55.7332 6.37109ZM64.0656 2.15234V4.49023H65.6916V6.35352H64.0656V11.0996C64.0656 11.4512 64.133 11.7031 64.2677 11.8555C64.4025 12.0078 64.6603 12.084 65.0412 12.084C65.3224 12.084 65.5714 12.0635 65.7882 12.0225V13.9473C65.2902 14.0996 64.7775 14.1758 64.2502 14.1758C62.4689 14.1758 61.5607 13.2764 61.5255 11.4775V6.35352H60.1369V4.49023H61.5255V2.15234H64.0656ZM71.1236 14.1758C69.729 14.1758 68.5923 13.748 67.7134 12.8926C66.8404 12.0371 66.4038 10.8975 66.4038 9.47363V9.22754C66.4038 8.27246 66.5884 7.41992 66.9575 6.66992C67.3267 5.91406 67.8482 5.33398 68.522 4.92969C69.2017 4.51953 69.9751 4.31445 70.8423 4.31445C72.1431 4.31445 73.1656 4.72461 73.9097 5.54492C74.6597 6.36523 75.0347 7.52832 75.0347 9.03418V10.0713H68.979C69.0611 10.6924 69.3072 11.1904 69.7173 11.5654C70.1333 11.9404 70.6577 12.1279 71.2906 12.1279C72.2691 12.1279 73.0337 11.7734 73.5845 11.0645L74.8325 12.4619C74.4517 13.001 73.9361 13.4229 73.2857 13.7275C72.6353 14.0264 71.9146 14.1758 71.1236 14.1758ZM70.8335 6.37109C70.3296 6.37109 69.9195 6.54102 69.6031 6.88086C69.2925 7.2207 69.0933 7.70703 69.0054 8.33984H72.5386V8.1377C72.5269 7.5752 72.3745 7.1416 72.0816 6.83691C71.7886 6.52637 71.3726 6.37109 70.8335 6.37109ZM78.1903 8.99023L77.3202 14H75.6679L77.8915 1.20312L82.163 1.21191C83.4813 1.21191 84.4979 1.56348 85.2128 2.2666C85.9276 2.96387 86.2352 3.89258 86.1356 5.05273C86.0302 6.27734 85.5409 7.24121 84.6679 7.94434C83.8007 8.64746 82.6552 8.99902 81.2313 8.99902L78.1903 8.99023ZM78.4276 7.61035L81.2753 7.61914C82.1718 7.61914 82.9071 7.39355 83.4813 6.94238C84.0555 6.49121 84.3925 5.86426 84.4921 5.06152C84.5858 4.34082 84.4364 3.75781 84.0438 3.3125C83.6513 2.86133 83.08 2.62402 82.33 2.60059L79.2977 2.5918L78.4276 7.61035ZM91.884 14C91.843 13.8301 91.8225 13.6631 91.8225 13.499L91.8489 12.998C90.9758 13.8066 90.05 14.1992 89.0715 14.1758C88.2336 14.1641 87.551 13.9004 87.0237 13.3848C86.5022 12.8633 86.2649 12.2129 86.3118 11.4336C86.3704 10.4258 86.8098 9.64062 87.6301 9.07812C88.4563 8.50977 89.5403 8.22559 90.8821 8.22559L92.5432 8.23438L92.6487 7.47852C92.7073 6.91016 92.5959 6.46191 92.3147 6.13379C92.0393 5.7998 91.6233 5.62695 91.0666 5.61523C90.5217 5.60352 90.0383 5.73828 89.6164 6.01953C89.2004 6.29492 88.9455 6.66113 88.8518 7.11816L87.2522 7.12695C87.3049 6.57031 87.5217 6.07812 87.9026 5.65039C88.2834 5.2168 88.7727 4.88281 89.3704 4.64844C89.968 4.4082 90.5862 4.29395 91.2248 4.30566C92.2151 4.3291 92.9856 4.63086 93.5364 5.21094C94.0872 5.78516 94.3186 6.5498 94.2307 7.50488L93.4573 12.2158L93.4133 12.8926C93.4016 13.2148 93.4368 13.5342 93.5188 13.8506L93.5012 14H91.884ZM89.3879 12.7695C89.8977 12.7812 90.3782 12.6611 90.8293 12.4092C91.2864 12.1514 91.6789 11.7969 92.0071 11.3457L92.3498 9.38574L91.1457 9.37695C90.1438 9.37695 89.3762 9.53516 88.843 9.85156C88.3098 10.168 88.008 10.6162 87.9377 11.1963C87.885 11.6416 87.9875 12.0137 88.2454 12.3125C88.509 12.6055 88.8899 12.7578 89.3879 12.7695ZM95.7691 9.22754C95.9098 8.19043 96.1881 7.29102 96.6041 6.5293C97.026 5.76172 97.5357 5.19629 98.1334 4.83301C98.7369 4.46387 99.3961 4.28809 100.111 4.30566C101.213 4.3291 102.045 4.74512 102.607 5.55371L102.923 4.49023H104.382L102.8 13.7979C102.63 15.0107 102.138 15.9805 101.324 16.707C100.509 17.4395 99.5045 17.7881 98.3092 17.7529C97.6646 17.7412 97.0465 17.5889 96.4547 17.2959C95.8688 17.0029 95.4059 16.6016 95.066 16.0918L95.9713 15.1162C96.5455 15.9658 97.3043 16.4023 98.2477 16.4258C99.0035 16.4492 99.6422 16.2383 100.164 15.793C100.691 15.3477 101.04 14.7148 101.21 13.8945L101.385 13.0508C100.612 13.8242 99.7066 14.1992 98.6695 14.1758C98.0777 14.1582 97.5621 14 97.1227 13.7012C96.6891 13.3965 96.3521 12.96 96.1119 12.3916C95.8717 11.8174 95.7398 11.1787 95.7164 10.4756C95.7047 10.1299 95.7223 9.71387 95.7691 9.22754ZM97.3072 10.1328C97.2896 10.9707 97.4332 11.6211 97.7379 12.084C98.0484 12.541 98.5143 12.7812 99.1354 12.8047C100.085 12.8281 100.902 12.3623 101.588 11.4072L102.335 7.03906C101.983 6.17188 101.347 5.7207 100.427 5.68555C99.566 5.66211 98.857 6.01367 98.3004 6.74023C97.7496 7.4668 97.4244 8.44824 97.3248 9.68457L97.3072 10.1328ZM108.953 14.1758C107.769 14.1523 106.844 13.7158 106.176 12.8662C105.508 12.0166 105.227 10.9297 105.332 9.60547L105.376 9.22754C105.476 8.28418 105.754 7.42285 106.211 6.64355C106.674 5.86426 107.236 5.27832 107.898 4.88574C108.561 4.4873 109.275 4.29688 110.043 4.31445C111.021 4.33789 111.789 4.66309 112.346 5.29004C112.902 5.91699 113.207 6.7666 113.26 7.83887C113.277 8.21973 113.266 8.60059 113.225 8.98145L113.128 9.71094H106.914C106.809 10.5723 106.949 11.3047 107.336 11.9082C107.728 12.5117 108.311 12.8252 109.085 12.8486C110.022 12.8721 110.89 12.4502 111.686 11.583L112.601 12.3564C112.202 12.9307 111.686 13.3818 111.054 13.71C110.427 14.0322 109.727 14.1875 108.953 14.1758ZM109.964 5.6416C109.308 5.62402 108.733 5.84668 108.241 6.30957C107.755 6.77246 107.368 7.46094 107.081 8.375L111.704 8.38379L111.739 8.24316C111.833 7.50488 111.713 6.89258 111.379 6.40625C111.051 5.91406 110.579 5.65918 109.964 5.6416Z" fill="#033F72"/>
</svg>
