<svg width="15" height="12" viewBox="0 0 15 12" fill="none" xmlns="http://www.w3.org/2000/svg">
<path d="M5.48887 5.46631H6.75299V6.73634C6.75299 6.83556 6.832 6.91989 6.9357 6.91989H8.02205C8.12081 6.91989 8.20475 6.84052 8.20475 6.73634V5.46631H9.46887C9.56763 5.46631 9.65158 5.38693 9.65158 5.28275V4.19132C9.65158 4.0921 9.57257 4.00776 9.46887 4.00776H8.20475V2.73774C8.20475 2.63852 8.12575 2.55418 8.02205 2.55418H6.9357C6.83694 2.55418 6.75299 2.63356 6.75299 2.73774V4.00776H5.48887C5.39011 4.00776 5.30617 4.08714 5.30617 4.19132V5.28275C5.3111 5.38197 5.39011 5.46631 5.48887 5.46631ZM13.2662 1.46771C13.2662 0.867425 12.7773 0.381243 12.1798 0.376282H2.77793C2.18043 0.376282 1.69651 0.867425 1.69158 1.46771V9.09779H13.2662V1.46771ZM11.8193 7.64421H3.1384V1.82987H11.8193V7.64421ZM14.3525 9.8221H8.87138C8.85656 10.2736 8.54053 10.5514 8.13068 10.5514H6.75793C6.33326 10.5514 6.0123 10.1545 6.01723 9.8221H0.605223C0.407704 9.8221 0.244751 9.98582 0.244751 10.1843V10.5464C0.244751 11.3501 0.891625 12 1.69158 12H13.2662C14.0661 12 14.713 11.3501 14.713 10.5464V10.1843C14.713 9.98582 14.55 9.8221 14.3525 9.8221Z" fill="white"/>
</svg>
