<?xml version="1.0" encoding="utf-8"?><svg xmlns="http://www.w3.org/2000/svg" viewBox="0 0 1324.5 340.4" xml:space="preserve"><path d="M602 112.3v-61h39.2v8.2h-29.4v17.7h26.7v8.2h-26.7v26.8H602v.1zM682.4 104.6h-.4c-1.9 4.7-5.6 8.7-13 8.7-9.1 0-15.2-6.2-15.2-17.1v-29h9.5v27.6c0 7.2 3.2 10.7 9.3 10.7 4.9 0 9.8-2.5 9.8-7.8V67.2h9.5v45.1h-9.5v-7.7zM706.6 112.3V67.2h9.5v7.7h.4c1.9-4.7 5.6-8.7 13-8.7 9.1 0 15.2 6.2 15.2 17.1v29h-9.5V84.7c0-7.2-3.2-10.7-9.3-10.7-4.9 0-9.8 2.5-9.8 7.8v30.6l-9.5-.1zM787.7 104.6h-.5c-2.6 5.4-7 8.7-13.6 8.7-10.6 0-17.4-8.1-17.4-23.6s6.8-23.6 17.4-23.6c6.6 0 11 3.3 13.6 8.7h.5V47.6h9.5v64.6h-9.5v-7.6zm0-7.4v-15c0-5.5-4.7-8.3-10.2-8.3-7.2 0-11.3 4.8-11.3 12.1v7.3c0 7.3 4.1 12.1 11.3 12.1 5.4.1 10.2-2.7 10.2-8.2zM847 112.3c-5.4 0-8.1-3.1-8.6-7.6h-.4c-1.7 5.4-6.5 8.6-13.5 8.6-9.2 0-15.1-5.2-15.1-13.6 0-8.7 6.4-13.5 19.7-13.5h8.6v-3.5c0-6-3.2-9.2-9.7-9.2-5.8 0-9.2 2.4-11.6 6.2l-5.7-4.6c2.5-4.9 8.6-9 18.2-9 11.4 0 18.3 5.7 18.3 16v22.6h5.7v7.5l-5.9.1zm-9.3-13.5v-6.6h-8.5c-7 0-10.3 2.2-10.3 6.2v1.7c0 4 3.1 6.1 8.2 6.1 6.1.1 10.6-2.9 10.6-7.4zM901.8 76.8l-7.4 4c-1.6-4.2-4.9-6.8-10.1-6.8-7.2 0-11.4 4.8-11.4 12v7.5c0 7.1 4.1 12 11.5 12 5.6 0 9-2.8 11.1-7.2l7 4.3c-2.8 6.2-8.4 10.5-17.4 10.7l-.9 4 .3.3c1.2-.3 2.5-.6 3.8-.6 3.4 0 6.1 1.9 6.1 5.9 0 5.3-5 7.5-10.5 7.5-5.2 0-8.2-2-9.5-3.7l3.6-4.1c1 1.3 2.9 2.4 5.5 2.4 2.2 0 3.8-.8 3.8-2.5 0-1.4-1-2.9-6.2-3.5l-2.2-.3 1.2-5.9c-10.9-1.7-17.3-10.4-17.3-23.2 0-14.4 8-23.6 21.3-23.6 9.4.1 14.9 4.5 17.7 10.8zM951.8 112.3c-5.4 0-8.1-3.1-8.6-7.6h-.4c-1.7 5.4-6.5 8.6-13.5 8.6-9.2 0-15.1-5.2-15.1-13.6 0-8.7 6.4-13.5 19.7-13.5h8.6v-3.5c0-6-3.2-9.2-9.7-9.2-5.8 0-9.2 2.4-11.6 6.2l-5.7-4.6c2.5-4.9 8.6-9 18.2-9 11.4 0 18.3 5.7 18.3 16v22.6h5.7v7.5l-5.9.1zm-18.2-54.8c-2.6-1.3-4.6-2-6.5-2s-3.3.8-5.1 2.3l-3.6-4.5c1.7-2.7 4.7-5 9-5 2.9 0 4.9 1 6.8 2 2.6 1.3 4.6 2 6.5 2s3.3-.8 5.1-2.3l3.6 4.5c-1.7 2.7-4.7 5-9 5-2.9 0-4.9-1-6.8-2zm8.9 41.3v-6.6H934c-7 0-10.3 2.2-10.3 6.2v1.7c0 4 3.1 6.1 8.2 6.1 6.1.1 10.6-2.9 10.6-7.4zM966.1 89.7c0-14.4 8.1-23.6 21.4-23.6 13.3 0 21.4 9.2 21.4 23.6s-8.1 23.6-21.4 23.6c-13.3 0-21.4-9.2-21.4-23.6zm32.8 3.4v-6.8c0-8.4-4.5-12.7-11.4-12.7s-11.4 4.3-11.4 12.7v6.8c0 8.4 4.5 12.7 11.4 12.7s11.4-4.3 11.4-12.7zM601.4 172h9.5v7.7h.5c2.6-5.4 7-8.7 13.6-8.7 10.6 0 17.4 8.1 17.4 23.6s-6.8 23.6-17.4 23.6c-6.6 0-11-3.3-13.6-8.7h-.5v25.2h-9.5V172zm31 26.2v-7.3c0-7.3-4.1-12.1-11.3-12.1-5.5 0-10.2 2.8-10.2 8.3v15c0 5.5 4.7 8.3 10.2 8.3 7.2-.1 11.3-4.9 11.3-12.2zM689.8 217.1c-5.4 0-8.1-3.1-8.6-7.6h-.4c-1.7 5.4-6.5 8.6-13.5 8.6-9.2 0-15.1-5.2-15.1-13.6 0-8.7 6.4-13.5 19.7-13.5h8.6v-3.5c0-6-3.2-9.2-9.7-9.2-5.8 0-9.2 2.4-11.6 6.2l-5.7-4.6c2.5-4.9 8.6-9 18.2-9 11.4 0 18.3 5.7 18.3 16v22.6h5.7v7.5h-5.9v.1zm-9.3-13.5V197H672c-7 0-10.3 2.2-10.3 6.2v1.7c0 4 3.1 6.1 8.2 6.1 6.1.1 10.6-2.9 10.6-7.4zM705.9 209.4h12v-29.7h-12V172h21.5v12h.5c1.7-6.3 5.7-12 14.8-12h5.4v9.1h-8.9c-7.8 0-11.9 5.2-11.9 11.4v16.9h16.3v7.7h-37.8v-7.7h.1zM794.6 217.1c-5.4 0-8.1-3.1-8.6-7.6h-.4c-1.7 5.4-6.5 8.6-13.5 8.6-9.2 0-15.1-5.2-15.1-13.6 0-8.7 6.4-13.5 19.7-13.5h8.6v-3.5c0-6-3.2-9.2-9.7-9.2-5.8 0-9.2 2.4-11.6 6.2l-5.7-4.6c2.5-4.9 8.6-9 18.2-9 11.4 0 18.3 5.7 18.3 16v22.6h5.7v7.5h-5.9v.1zm-9.3-13.5V197h-8.5c-7 0-10.3 2.2-10.3 6.2v1.7c0 4 3.1 6.1 8.2 6.1 6.1.1 10.6-2.9 10.6-7.4zM899.4 217.1c-5.4 0-8.1-3.1-8.6-7.6h-.4c-1.7 5.4-6.5 8.6-13.5 8.6-9.2 0-15.1-5.2-15.1-13.6 0-8.7 6.4-13.5 19.7-13.5h8.6v-3.5c0-6-3.2-9.2-9.7-9.2-5.8 0-9.2 2.4-11.6 6.2l-5.7-4.6c2.5-4.9 8.6-9 18.2-9 11.4 0 18.3 5.7 18.3 16v22.6h5.7v7.5h-5.9v.1zm-9.3-13.5V197h-8.5c-7 0-10.3 2.2-10.3 6.2v1.7c0 4 3.1 6.1 8.2 6.1 6.1.1 10.6-2.9 10.6-7.4zM966.3 186.6c0-20.2 7.4-31.5 22.9-31.5 11.8 0 17.2 6.8 20 15.1l-8.8 3c-1.8-5.6-4.4-10-11.3-10-8.6 0-12.4 7.1-12.4 18.3v10.3c0 11.2 3.8 18.3 12.4 18.3 6.9 0 9.4-4.4 11.3-10l8.8 3c-2.8 8.3-8.2 15.1-20 15.1-15.4-.1-22.9-11.4-22.9-31.6zM1022.5 209.4h15.4v-29.7h-15.4V172h24.9v37.4h14.4v7.7h-39.3v-7.7zm13.6-50.8v-1.8c0-2.9 1.7-5.2 6.5-5.2s6.6 2.3 6.6 5.2v1.8c0 2.9-1.7 5.2-6.5 5.2s-6.6-2.3-6.6-5.2zM1071.3 194.6c0-14.5 8.4-23.7 21.2-23.7 12.7 0 20.7 9.1 20.7 22.4v3.6h-32.3v1.5c0 7.1 4.7 12.1 12.5 12.1 5.8 0 10-2.7 12.5-6.9l5.9 5.2c-3.1 5.2-9.3 9.3-18.6 9.3-13.8 0-21.9-9.2-21.9-23.5zm25.9-45.1 10.5 13.1-5.1 3.7-10.3-10.1-10.4 10.1-4.8-3.7 10.5-13.1h9.6zm-16.3 40.7v.6h22.6v-.9c0-7.1-4.4-11.7-11-11.7-6.8 0-11.6 5-11.6 12zM1125.8 217.1V172h9.5v7.7h.4c1.9-4.7 5.6-8.7 13-8.7 9.1 0 15.2 6.2 15.2 17.1v29h-9.5v-27.6c0-7.2-3.2-10.7-9.3-10.7-4.9 0-9.8 2.5-9.8 7.8v30.6h-9.5v-.1zM1177.3 194.5c0-14.4 8-23.6 21.3-23.6 9.3 0 14.8 4.4 17.6 10.7l-7.4 4c-1.6-4.2-4.9-6.8-10.1-6.8-7.2 0-11.4 4.8-11.4 12v7.5c0 7.1 4.1 12 11.5 12 5.6 0 9-2.8 11.1-7.2l7 4.3c-2.9 6.3-8.7 10.7-18.2 10.7-13.4 0-21.4-9.2-21.4-23.6zM1232.1 209.4h15.4v-29.7h-15.4V172h24.9v37.4h14.4v7.7h-39.3v-7.7zm13.6-50.8v-1.8c0-2.9 1.7-5.2 6.5-5.2s6.6 2.3 6.6 5.2v1.8c0 2.9-1.7 5.2-6.5 5.2s-6.6-2.3-6.6-5.2zM1318.6 217.1c-5.4 0-8.1-3.1-8.6-7.6h-.4c-1.7 5.4-6.5 8.6-13.5 8.6-9.2 0-15.1-5.2-15.1-13.6 0-8.7 6.4-13.5 19.7-13.5h8.6v-3.5c0-6-3.2-9.2-9.7-9.2-5.8 0-9.2 2.4-11.6 6.2l-5.7-4.6c2.5-4.9 8.6-9 18.2-9 11.4 0 18.3 5.7 18.3 16v22.6h5.7v7.5h-5.9v.1zm-9.3-13.5V197h-8.5c-7 0-10.3 2.2-10.3 6.2v1.7c0 4 3.1 6.1 8.2 6.1 6.1.1 10.6-2.9 10.6-7.4zM599.7 299.4c0-14.5 8.4-23.7 21.2-23.7 12.7 0 20.7 9.1 20.7 22.4v3.6h-32.3v1.5c0 7.1 4.7 12.1 12.5 12.1 5.8 0 10-2.7 12.5-6.9l5.9 5.2c-3.1 5.2-9.3 9.3-18.6 9.3-13.8 0-21.9-9.2-21.9-23.5zm9.6-4.4v.6h22.6v-.9c0-7.1-4.4-11.7-11-11.7-6.8 0-11.6 5-11.6 12zM742.2 321.9c-5.4 0-8.1-3.1-8.6-7.6h-.4c-1.7 5.4-6.5 8.6-13.5 8.6-9.2 0-15.1-5.2-15.1-13.6 0-8.7 6.4-13.5 19.7-13.5h8.6v-3.5c0-6-3.2-9.2-9.7-9.2-5.8 0-9.2 2.4-11.6 6.2l-5.7-4.6c2.5-4.9 8.6-9 18.2-9 11.4 0 18.3 5.7 18.3 16v22.6h5.7v7.5h-5.9v.1zm-9.3-13.5v-6.6h-8.5c-7 0-10.3 2.2-10.3 6.2v1.7c0 4 3.1 6.1 8.2 6.1 6.1.1 10.6-2.9 10.6-7.4zM835.2 269.1v52.8h-9.8v-52.8h-19.1v-8.2h48v8.2h-19.1zM861.7 299.4c0-14.5 8.4-23.7 21.2-23.7 12.7 0 20.7 9.1 20.7 22.4v3.6h-32.3v1.5c0 7.1 4.7 12.1 12.5 12.1 5.8 0 10-2.7 12.5-6.9l5.9 5.2c-3.1 5.2-9.3 9.3-18.6 9.3-13.8 0-21.9-9.2-21.9-23.5zm9.6-4.4v.6h22.6v-.9c0-7.1-4.4-11.7-11-11.7-6.8 0-11.6 5-11.6 12zM915.3 299.3c0-14.4 8-23.6 21.3-23.6 9.3 0 14.8 4.4 17.6 10.7l-7.4 4c-1.6-4.2-4.9-6.8-10.1-6.8-7.2 0-11.4 4.8-11.4 12v7.5c0 7.1 4.1 12 11.5 12 5.6 0 9-2.8 11.1-7.2l7 4.3c-2.9 6.3-8.7 10.7-18.2 10.7-13.4 0-21.4-9.2-21.4-23.6zM968.6 321.9v-45.1h9.5v7.7h.4c1.9-4.7 5.6-8.7 13-8.7 9.1 0 15.2 6.2 15.2 17.1v29h-9.5v-27.6c0-7.2-3.2-10.7-9.3-10.7-4.9 0-9.8 2.5-9.8 7.8V322l-9.5-.1zM1018.5 299.3c0-14.4 8.1-23.6 21.4-23.6s21.4 9.2 21.4 23.6-8.1 23.6-21.4 23.6-21.4-9.2-21.4-23.6zm32.8 3.4v-6.8c0-8.4-4.5-12.7-11.4-12.7s-11.4 4.3-11.4 12.7v6.8c0 8.4 4.5 12.7 11.4 12.7s11.4-4.3 11.4-12.7zM1072.6 314.2h14.9v-49.3h-14.9v-7.7h24.5v56.9h14.9v7.7h-39.4v-7.6zM1123.3 299.3c0-14.4 8.1-23.6 21.4-23.6s21.4 9.2 21.4 23.6-8.1 23.6-21.4 23.6-21.4-9.2-21.4-23.6zm32.8 3.4v-6.8c0-8.4-4.5-12.7-11.4-12.7s-11.4 4.3-11.4 12.7v6.8c0 8.4 4.5 12.7 11.4 12.7s11.4-4.3 11.4-12.7zM1197 340.4c-15.5 0-21-4.1-21-10.8 0-4.9 2.9-7.4 7.9-8.7v-.9c-3.1-1.1-5-3.1-5-6.6 0-4.5 3.4-6.5 8.1-7.6v-.4c-5.4-2.5-8.6-7.3-8.6-13.8 0-9.6 7.2-15.8 18.3-15.8 3.1 0 6 .5 8.5 1.5v-1.5c0-3.5 2-6.1 6-6.1h8.2v7.5h-10.5v2.1c3.9 2.7 6.1 6.9 6.1 12.3 0 9.6-7.2 15.7-18.3 15.7-2 0-3.8-.2-5.6-.5-2.1.5-4.7 1.9-4.7 4.4 0 2.8 3.1 3.1 7 3.1h10.1c12.1 0 17.1 5.1 17.1 12.5.1 9.2-7.7 13.6-23.6 13.6zm6.3-18h-15.6c-2.2 1-3.3 2.7-3.3 5.1 0 3.4 2.6 6.2 9.3 6.2h7.1c7.2 0 11.1-2.2 11.1-6.3-.2-3.1-2.3-5-8.6-5zm2.4-29.7v-2.4c0-4.8-2.9-8-9-8s-9 3.2-9 8v2.4c0 4.8 2.9 8 9 8s9-3.2 9-8zM1232.1 314.2h15.4v-29.7h-15.4v-7.7h24.9v37.4h14.4v7.7h-39.3v-7.7zm13.6-50.8v-1.8c0-2.9 1.7-5.2 6.5-5.2s6.6 2.3 6.6 5.2v1.8c0 2.9-1.7 5.2-6.5 5.2s-6.6-2.3-6.6-5.2zM1318.6 321.9c-5.4 0-8.1-3.1-8.6-7.6h-.4c-1.7 5.4-6.5 8.6-13.5 8.6-9.2 0-15.1-5.2-15.1-13.6 0-8.7 6.4-13.5 19.7-13.5h8.6v-3.5c0-6-3.2-9.2-9.7-9.2-5.8 0-9.2 2.4-11.6 6.2l-5.7-4.6c2.5-4.9 8.6-9 18.2-9 11.4 0 18.3 5.7 18.3 16v22.6h5.7v7.5h-5.9v.1zm-9.3-13.5v-6.6h-8.5c-7 0-10.3 2.2-10.3 6.2v1.7c0 4 3.1 6.1 8.2 6.1 6.1.1 10.6-2.9 10.6-7.4z"/><g><path d="M88.5 135.7H156v29H88.5V294H156v29H0v-29h55.6V164.7H0v-29h43.6c6.6 0 12-5.4 12-12v-18.3c0-7.4 2.9-14.5 8.2-19.8L95 54.5c5.2-5.2 12.4-8 19.8-8H156v28.9H88.5v60.3zM248 46.4h70.5v29h-97.2V217h97.2v29H248c-7.4 0-14.5-2.9-19.8-8.2l-31.7-31.7c-5.2-5.2-8.2-12.4-8.2-19.8V106c0-7.4 2.9-14.5 8.2-19.8l31.7-31.7c5.2-5.1 12.4-8.1 19.8-8.1zM403.7 189.1V75.5H349v-29h42.7c6.6 0 12-5.4 12-12V0h32.9v46.4h70.9v29h-70.9V217h70.9v29H457c-8.1 0-15.7-3.5-21-9.5l-25.4-29c-4.5-5.1-6.9-11.7-6.9-18.4zM188.3 294h319.1v29H188.3z"/></g><g><path d="M-904.5 112.3v-61h39.2v8.2h-29.4v17.7h26.7v8.2h-26.7v26.8h-9.8v.1zM-824 104.6h-.4c-1.9 4.7-5.6 8.7-13 8.7-9.1 0-15.2-6.2-15.2-17.1v-29h9.5v27.6c0 7.2 3.2 10.7 9.3 10.7 4.9 0 9.8-2.5 9.8-7.8V67.2h9.5v45.1h-9.5v-7.7zM-799.9 112.3V67.2h9.5v7.7h.4c1.9-4.7 5.6-8.7 13-8.7 9.1 0 15.2 6.2 15.2 17.1v29h-9.5V84.7c0-7.2-3.2-10.7-9.3-10.7-4.9 0-9.8 2.5-9.8 7.8v30.6l-9.5-.1zM-718.8 104.6h-.5c-2.6 5.4-7 8.7-13.6 8.7-10.6 0-17.4-8.1-17.4-23.6s6.8-23.6 17.4-23.6c6.6 0 11 3.3 13.6 8.7h.5V47.6h9.5v64.6h-9.5v-7.6zm0-7.4v-15c0-5.5-4.7-8.3-10.2-8.3-7.2 0-11.3 4.8-11.3 12.1v7.3c0 7.3 4.1 12.1 11.3 12.1 5.5.1 10.2-2.7 10.2-8.2zM-659.4 112.3c-5.4 0-8.1-3.1-8.6-7.6h-.4c-1.7 5.4-6.5 8.6-13.5 8.6-9.2 0-15.1-5.2-15.1-13.6 0-8.7 6.4-13.5 19.7-13.5h8.6v-3.5c0-6-3.2-9.2-9.7-9.2-5.8 0-9.2 2.4-11.6 6.2l-5.7-4.6c2.5-4.9 8.6-9 18.2-9 11.4 0 18.3 5.7 18.3 16v22.6h5.7v7.5l-5.9.1zm-9.4-13.5v-6.6h-8.5c-7 0-10.3 2.2-10.3 6.2v1.7c0 4 3.1 6.1 8.2 6.1 6.2.1 10.6-2.9 10.6-7.4zM-604.7 76.8l-7.4 4c-1.6-4.2-4.9-6.8-10.1-6.8-7.2 0-11.4 4.8-11.4 12v7.5c0 7.1 4.1 12 11.5 12 5.6 0 9-2.8 11.1-7.2l7 4.3c-2.8 6.2-8.4 10.5-17.4 10.7l-.9 4 .3.3c1.2-.3 2.5-.6 3.8-.6 3.4 0 6.1 1.9 6.1 5.9 0 5.3-5 7.5-10.5 7.5-5.2 0-8.2-2-9.5-3.7l3.6-4.1c1 1.3 2.9 2.4 5.5 2.4 2.2 0 3.8-.8 3.8-2.5 0-1.4-1-2.9-6.2-3.5l-2.2-.3 1.2-5.9c-10.9-1.7-17.3-10.4-17.3-23.2 0-14.4 8-23.6 21.3-23.6 9.4.1 14.9 4.5 17.7 10.8zM-554.6 112.3c-5.4 0-8.1-3.1-8.6-7.6h-.4c-1.7 5.4-6.5 8.6-13.5 8.6-9.2 0-15.1-5.2-15.1-13.6 0-8.7 6.4-13.5 19.7-13.5h8.6v-3.5c0-6-3.2-9.2-9.7-9.2-5.8 0-9.2 2.4-11.6 6.2l-5.7-4.6c2.5-4.9 8.6-9 18.2-9 11.4 0 18.3 5.7 18.3 16v22.6h5.7v7.5l-5.9.1zm-18.3-54.8c-2.6-1.3-4.6-2-6.5-2s-3.3.8-5.1 2.3l-3.6-4.5c1.7-2.7 4.7-5 9-5 2.9 0 4.9 1 6.8 2 2.6 1.3 4.6 2 6.5 2s3.3-.8 5.1-2.3l3.6 4.5c-1.7 2.7-4.7 5-9 5-2.8 0-4.9-1-6.8-2zm8.9 41.3v-6.6h-8.5c-7 0-10.3 2.2-10.3 6.2v1.7c0 4 3.1 6.1 8.2 6.1 6.2.1 10.6-2.9 10.6-7.4zM-540.4 89.7c0-14.4 8.1-23.6 21.4-23.6 13.3 0 21.4 9.2 21.4 23.6s-8.1 23.6-21.4 23.6c-13.3 0-21.4-9.2-21.4-23.6zm32.9 3.4v-6.8c0-8.4-4.5-12.7-11.4-12.7s-11.4 4.3-11.4 12.7v6.8c0 8.4 4.5 12.7 11.4 12.7 6.8 0 11.4-4.3 11.4-12.7zM-905.1 172h9.5v7.7h.5c2.6-5.4 7-8.7 13.6-8.7 10.6 0 17.4 8.1 17.4 23.6s-6.8 23.6-17.4 23.6c-6.6 0-11-3.3-13.6-8.7h-.5v25.2h-9.5V172zm31 26.2v-7.3c0-7.3-4.1-12.1-11.3-12.1-5.5 0-10.2 2.8-10.2 8.3v15c0 5.5 4.7 8.3 10.2 8.3 7.2-.1 11.3-4.9 11.3-12.2zM-816.6 217.1c-5.4 0-8.1-3.1-8.6-7.6h-.4c-1.7 5.4-6.5 8.6-13.5 8.6-9.2 0-15.1-5.2-15.1-13.6 0-8.7 6.4-13.5 19.7-13.5h8.6v-3.5c0-6-3.2-9.2-9.7-9.2-5.8 0-9.2 2.4-11.6 6.2l-5.7-4.6c2.5-4.9 8.6-9 18.2-9 11.4 0 18.3 5.7 18.3 16v22.6h5.7v7.5h-5.9v.1zm-9.4-13.5V197h-8.5c-7 0-10.3 2.2-10.3 6.2v1.7c0 4 3.1 6.1 8.2 6.1 6.2.1 10.6-2.9 10.6-7.4zM-800.6 209.4h12v-29.7h-12V172h21.5v12h.5c1.7-6.3 5.7-12 14.8-12h5.4v9.1h-8.9c-7.8 0-11.9 5.2-11.9 11.4v16.9h16.3v7.7h-37.8v-7.7h.1zM-711.8 217.1c-5.4 0-8.1-3.1-8.6-7.6h-.4c-1.7 5.4-6.5 8.6-13.5 8.6-9.2 0-15.1-5.2-15.1-13.6 0-8.7 6.4-13.5 19.7-13.5h8.6v-3.5c0-6-3.2-9.2-9.7-9.2-5.8 0-9.2 2.4-11.6 6.2l-5.7-4.6c2.5-4.9 8.6-9 18.2-9 11.4 0 18.3 5.7 18.3 16v22.6h5.7v7.5h-5.9v.1zm-9.4-13.5V197h-8.5c-7 0-10.3 2.2-10.3 6.2v1.7c0 4 3.1 6.1 8.2 6.1 6.2.1 10.6-2.9 10.6-7.4zM-607 217.1c-5.4 0-8.1-3.1-8.6-7.6h-.4c-1.7 5.4-6.5 8.6-13.5 8.6-9.2 0-15.1-5.2-15.1-13.6 0-8.7 6.4-13.5 19.7-13.5h8.6v-3.5c0-6-3.2-9.2-9.7-9.2-5.8 0-9.2 2.4-11.6 6.2l-5.7-4.6c2.5-4.9 8.6-9 18.2-9 11.4 0 18.3 5.7 18.3 16v22.6h5.7v7.5h-5.9v.1zm-9.4-13.5V197h-8.5c-7 0-10.3 2.2-10.3 6.2v1.7c0 4 3.1 6.1 8.2 6.1 6.2.1 10.6-2.9 10.6-7.4zM-540.1 186.6c0-20.2 7.4-31.5 22.9-31.5 11.8 0 17.2 6.8 20 15.1l-8.8 3c-1.8-5.6-4.4-10-11.3-10-8.6 0-12.4 7.1-12.4 18.3v10.3c0 11.2 3.8 18.3 12.4 18.3 6.9 0 9.4-4.4 11.3-10l8.8 3c-2.8 8.3-8.2 15.1-20 15.1-15.5-.1-22.9-11.4-22.9-31.6zM-484 209.4h15.4v-29.7H-484V172h24.9v37.4h14.4v7.7H-484v-7.7zm13.7-50.8v-1.8c0-2.9 1.7-5.2 6.5-5.2s6.6 2.3 6.6 5.2v1.8c0 2.9-1.7 5.2-6.5 5.2-4.9 0-6.6-2.3-6.6-5.2zM-435.2 194.6c0-14.5 8.4-23.7 21.2-23.7 12.7 0 20.7 9.1 20.7 22.4v3.6h-32.3v1.5c0 7.1 4.7 12.1 12.5 12.1 5.8 0 10-2.7 12.5-6.9l5.9 5.2c-3.1 5.2-9.3 9.3-18.6 9.3-13.7 0-21.9-9.2-21.9-23.5zm25.9-45.1 10.5 13.1-5.1 3.7-10.3-10.1-10.4 10.1-4.8-3.7 10.5-13.1h9.6zm-16.2 40.7v.6h22.6v-.9c0-7.1-4.4-11.7-11-11.7-6.8 0-11.6 5-11.6 12zM-380.7 217.1V172h9.5v7.7h.4c1.9-4.7 5.6-8.7 13-8.7 9.1 0 15.2 6.2 15.2 17.1v29h-9.5v-27.6c0-7.2-3.2-10.7-9.3-10.7-4.9 0-9.8 2.5-9.8 7.8v30.6h-9.5v-.1zM-329.1 194.5c0-14.4 8-23.6 21.3-23.6 9.3 0 14.8 4.4 17.6 10.7l-7.4 4c-1.6-4.2-4.9-6.8-10.1-6.8-7.2 0-11.4 4.8-11.4 12v7.5c0 7.1 4.1 12 11.5 12 5.6 0 9-2.8 11.1-7.2l7 4.3c-2.9 6.3-8.7 10.7-18.2 10.7-13.5 0-21.4-9.2-21.4-23.6zM-274.4 209.4h15.4v-29.7h-15.4V172h24.9v37.4h14.4v7.7h-39.3v-7.7zm13.7-50.8v-1.8c0-2.9 1.7-5.2 6.5-5.2s6.6 2.3 6.6 5.2v1.8c0 2.9-1.7 5.2-6.5 5.2-4.9 0-6.6-2.3-6.6-5.2zM-187.8 217.1c-5.4 0-8.1-3.1-8.6-7.6h-.4c-1.7 5.4-6.5 8.6-13.5 8.6-9.2 0-15.1-5.2-15.1-13.6 0-8.7 6.4-13.5 19.7-13.5h8.6v-3.5c0-6-3.2-9.2-9.7-9.2-5.8 0-9.2 2.4-11.6 6.2l-5.7-4.6c2.5-4.9 8.6-9 18.2-9 11.4 0 18.3 5.7 18.3 16v22.6h5.7v7.5h-5.9v.1zm-9.4-13.5V197h-8.5c-7 0-10.3 2.2-10.3 6.2v1.7c0 4 3.1 6.1 8.2 6.1 6.2.1 10.6-2.9 10.6-7.4zM-906.8 299.4c0-14.5 8.4-23.7 21.2-23.7 12.7 0 20.7 9.1 20.7 22.4v3.6h-32.3v1.5c0 7.1 4.7 12.1 12.5 12.1 5.8 0 10-2.7 12.5-6.9l5.9 5.2c-3.1 5.2-9.3 9.3-18.6 9.3-13.7 0-21.9-9.2-21.9-23.5zm9.7-4.4v.6h22.6v-.9c0-7.1-4.4-11.7-11-11.7-6.8 0-11.6 5-11.6 12zM-764.2 321.9c-5.4 0-8.1-3.1-8.6-7.6h-.4c-1.7 5.4-6.5 8.6-13.5 8.6-9.2 0-15.1-5.2-15.1-13.6 0-8.7 6.4-13.5 19.7-13.5h8.6v-3.5c0-6-3.2-9.2-9.7-9.2-5.8 0-9.2 2.4-11.6 6.2l-5.7-4.6c2.5-4.9 8.6-9 18.2-9 11.4 0 18.3 5.7 18.3 16v22.6h5.7v7.5h-5.9v.1zm-9.4-13.5v-6.6h-8.5c-7 0-10.3 2.2-10.3 6.2v1.7c0 4 3.1 6.1 8.2 6.1 6.2.1 10.6-2.9 10.6-7.4zM-671.3 269.1v52.8h-9.8v-52.8h-19.1v-8.2h48v8.2h-19.1zM-644.8 299.4c0-14.5 8.4-23.7 21.2-23.7 12.7 0 20.7 9.1 20.7 22.4v3.6h-32.3v1.5c0 7.1 4.7 12.1 12.5 12.1 5.8 0 10-2.7 12.5-6.9l5.9 5.2c-3.1 5.2-9.3 9.3-18.6 9.3-13.7 0-21.9-9.2-21.9-23.5zm9.7-4.4v.6h22.6v-.9c0-7.1-4.4-11.7-11-11.7-6.8 0-11.6 5-11.6 12zM-591.1 299.3c0-14.4 8-23.6 21.3-23.6 9.3 0 14.8 4.4 17.6 10.7l-7.4 4c-1.6-4.2-4.9-6.8-10.1-6.8-7.2 0-11.4 4.8-11.4 12v7.5c0 7.1 4.1 12 11.5 12 5.6 0 9-2.8 11.1-7.2l7 4.3c-2.9 6.3-8.7 10.7-18.2 10.7-13.5 0-21.4-9.2-21.4-23.6zM-537.9 321.9v-45.1h9.5v7.7h.4c1.9-4.7 5.6-8.7 13-8.7 9.1 0 15.2 6.2 15.2 17.1v29h-9.5v-27.6c0-7.2-3.2-10.7-9.3-10.7-4.9 0-9.8 2.5-9.8 7.8V322l-9.5-.1zM-488 299.3c0-14.4 8.1-23.6 21.4-23.6s21.4 9.2 21.4 23.6-8.1 23.6-21.4 23.6-21.4-9.2-21.4-23.6zm32.9 3.4v-6.8c0-8.4-4.5-12.7-11.4-12.7s-11.4 4.3-11.4 12.7v6.8c0 8.4 4.5 12.7 11.4 12.7 6.8 0 11.4-4.3 11.4-12.7zM-433.8 314.2h14.9v-49.3h-14.9v-7.7h24.5v56.9h14.9v7.7h-39.4v-7.6zM-383.2 299.3c0-14.4 8.1-23.6 21.4-23.6s21.4 9.2 21.4 23.6-8.1 23.6-21.4 23.6-21.4-9.2-21.4-23.6zm32.9 3.4v-6.8c0-8.4-4.5-12.7-11.4-12.7s-11.4 4.3-11.4 12.7v6.8c0 8.4 4.5 12.7 11.4 12.7 6.8 0 11.4-4.3 11.4-12.7zM-309.5 340.4c-15.5 0-21-4.1-21-10.8 0-4.9 2.9-7.4 7.9-8.7v-.9c-3.1-1.1-5-3.1-5-6.6 0-4.5 3.4-6.5 8.1-7.6v-.4c-5.4-2.5-8.6-7.3-8.6-13.8 0-9.6 7.2-15.8 18.3-15.8 3.1 0 6 .5 8.5 1.5v-1.5c0-3.5 2-6.1 6-6.1h8.2v7.5h-10.5v2.1c3.9 2.7 6.1 6.9 6.1 12.3 0 9.6-7.2 15.7-18.3 15.7-2 0-3.8-.2-5.6-.5-2.1.5-4.7 1.9-4.7 4.4 0 2.8 3.1 3.1 7 3.1h10.1c12.1 0 17.1 5.1 17.1 12.5.1 9.2-7.7 13.6-23.6 13.6zm6.3-18h-15.6c-2.2 1-3.3 2.7-3.3 5.1 0 3.4 2.6 6.2 9.3 6.2h7.1c7.2 0 11.1-2.2 11.1-6.3-.1-3.1-2.2-5-8.6-5zm2.5-29.7v-2.4c0-4.8-2.9-8-9-8s-9 3.2-9 8v2.4c0 4.8 2.9 8 9 8s9-3.2 9-8zM-274.4 314.2h15.4v-29.7h-15.4v-7.7h24.9v37.4h14.4v7.7h-39.3v-7.7zm13.7-50.8v-1.8c0-2.9 1.7-5.2 6.5-5.2s6.6 2.3 6.6 5.2v1.8c0 2.9-1.7 5.2-6.5 5.2-4.9 0-6.6-2.3-6.6-5.2zM-187.8 321.9c-5.4 0-8.1-3.1-8.6-7.6h-.4c-1.7 5.4-6.5 8.6-13.5 8.6-9.2 0-15.1-5.2-15.1-13.6 0-8.7 6.4-13.5 19.7-13.5h8.6v-3.5c0-6-3.2-9.2-9.7-9.2-5.8 0-9.2 2.4-11.6 6.2l-5.7-4.6c2.5-4.9 8.6-9 18.2-9 11.4 0 18.3 5.7 18.3 16v22.6h5.7v7.5h-5.9v.1zm-9.4-13.5v-6.6h-8.5c-7 0-10.3 2.2-10.3 6.2v1.7c0 4 3.1 6.1 8.2 6.1 6.2.1 10.6-2.9 10.6-7.4z"/><g><path d="M-1418 135.7h67.5v29h-67.5V294h67.5v29h-156v-29h55.6V164.7h-55.6v-29h43.6c6.6 0 12-5.4 12-12v-18.3c0-7.4 2.9-14.5 8.2-19.8l31.2-31.2c5.2-5.2 12.4-8 19.8-8h41.2v28.9h-67.5v60.4zM-1258.5 46.4h70.5v29h-97.2V217h97.2v29h-70.5c-7.4 0-14.5-2.9-19.8-8.2l-31.7-31.7c-5.2-5.2-8.2-12.4-8.2-19.8V106c0-7.4 2.9-14.5 8.2-19.8l31.7-31.7c5.3-5.1 12.4-8.1 19.8-8.1zM-1102.8 189.1V75.5h-54.7v-29h42.7c6.6 0 12-5.4 12-12V0h32.9v46.4h70.9v29h-70.9V217h70.9v29h-50.5c-8.1 0-15.7-3.5-21-9.5l-25.4-29c-4.4-5.1-6.9-11.7-6.9-18.4zM-1318.1 294H-999v29h-319.1z"/></g></g></svg>