<svg width="21" height="3" viewBox="0 0 21 3" fill="none" xmlns="http://www.w3.org/2000/svg">
<path d="M1.34049 1.72555C1.34049 1.63617 1.30763 1.56782 1.24192 1.5205C1.17621 1.47213 1.05793 1.42166 0.887088 1.36909C0.716241 1.31546 0.580988 1.26288 0.481327 1.21136C0.209725 1.07045 0.073924 0.880652 0.073924 0.641956C0.073924 0.517876 0.110065 0.407466 0.182346 0.310726C0.255722 0.212934 0.360311 0.136698 0.496112 0.0820189C0.633008 0.0273396 0.786332 0 0.956084 0C1.12693 0 1.27916 0.0299685 1.41277 0.0899054C1.54638 0.148791 1.64987 0.232387 1.72325 0.340694C1.79772 0.449001 1.83496 0.572029 1.83496 0.709779H1.34213C1.34213 0.604627 1.30763 0.523134 1.23864 0.4653C1.16964 0.406414 1.07272 0.376972 0.94787 0.376972C0.827401 0.376972 0.733764 0.401682 0.666959 0.451104C0.600153 0.499474 0.566751 0.563617 0.566751 0.643533C0.566751 0.718191 0.605629 0.780757 0.683386 0.83123C0.762238 0.881704 0.877779 0.929022 1.03001 0.973186C1.31037 1.05415 1.51462 1.15457 1.64276 1.27445C1.77089 1.39432 1.83496 1.54364 1.83496 1.7224C1.83496 1.92114 1.75665 2.07729 1.60004 2.19085C1.44343 2.30336 1.23261 2.35962 0.967583 2.35962C0.783594 2.35962 0.616033 2.32755 0.4649 2.26341C0.313766 2.19821 0.198226 2.10936 0.118278 1.99685C0.0394261 1.88433 0 1.75394 0 1.60568H0.494469C0.494469 1.8591 0.652174 1.9858 0.967583 1.9858C1.08477 1.9858 1.17621 1.9632 1.24192 1.91798C1.30763 1.87171 1.34049 1.80757 1.34049 1.72555Z" fill="#002849"/>
<path d="M3.10159 2.32808C3.07968 2.28707 3.0638 2.23607 3.05395 2.17508C2.93896 2.29811 2.78946 2.35962 2.60548 2.35962C2.43134 2.35962 2.28678 2.31125 2.17179 2.21451C2.05789 2.11777 2.00094 1.99579 2.00094 1.84858C2.00094 1.66772 2.07049 1.52892 2.20957 1.43218C2.34975 1.33544 2.55181 1.28654 2.81575 1.28549H3.03423V1.1877C3.03423 1.10883 3.01288 1.04574 2.97017 0.998423C2.92855 0.951104 2.86229 0.927445 2.77139 0.927445C2.69145 0.927445 2.62847 0.945847 2.58248 0.98265C2.53758 1.01945 2.51512 1.06993 2.51512 1.13407H2.04037C2.04037 1.03523 2.07213 0.943743 2.13565 0.859621C2.19917 0.775499 2.28897 0.709779 2.40506 0.662461C2.52115 0.61409 2.65147 0.589905 2.79604 0.589905C3.01507 0.589905 3.18865 0.643007 3.31679 0.749211C3.44602 0.854364 3.51063 1.00263 3.51063 1.19401V1.93375C3.51173 2.09569 3.53528 2.21819 3.58127 2.30126V2.32808H3.10159ZM2.70897 2.01104C2.77906 2.01104 2.84368 1.99632 2.90281 1.96688C2.96195 1.93638 3.00576 1.8959 3.03423 1.84543V1.55205H2.85682C2.61917 1.55205 2.49267 1.63091 2.47734 1.78864L2.4757 1.81546C2.4757 1.87224 2.49651 1.91903 2.53812 1.95584C2.57974 1.99264 2.63669 2.01104 2.70897 2.01104Z" fill="#002849"/>
<path d="M4.44707 1.77129L4.77726 0.621451H5.27338L4.67377 2.32808H4.22037L3.62076 0.621451H4.11688L4.44707 1.77129Z" fill="#002849"/>
<path d="M6.21145 2.35962C5.9508 2.35962 5.73834 2.28286 5.57407 2.12934C5.41089 1.97581 5.3293 1.77129 5.3293 1.51577V1.47161C5.3293 1.30021 5.36379 1.14721 5.43279 1.01262C5.50178 0.876972 5.59925 0.772871 5.7252 0.700315C5.85224 0.626709 5.9968 0.589905 6.15889 0.589905C6.40201 0.589905 6.59312 0.663512 6.73221 0.810726C6.87239 0.957939 6.94248 1.16667 6.94248 1.43691V1.62303H5.81062C5.82596 1.73449 5.87195 1.82387 5.94861 1.89117C6.02637 1.95846 6.12439 1.99211 6.24267 1.99211C6.42556 1.99211 6.56848 1.9285 6.67143 1.80126L6.9047 2.05205C6.83351 2.14879 6.73714 2.2245 6.61557 2.27918C6.49401 2.33281 6.3593 2.35962 6.21145 2.35962ZM6.15724 0.958991C6.06306 0.958991 5.9864 0.989485 5.92726 1.05047C5.86921 1.11146 5.83198 1.19874 5.81555 1.3123H6.47594V1.27603C6.47375 1.17508 6.44527 1.09727 6.39052 1.04259C6.33576 0.986856 6.258 0.958991 6.15724 0.958991Z" fill="#002849"/>
<path d="M7.67029 1.51893V2.32808H7.17746V0.0315457H8.11055C8.29015 0.0315457 8.44786 0.0630915 8.58366 0.126183C8.72056 0.189274 8.82569 0.27918 8.89907 0.395899C8.97245 0.511567 9.00913 0.643533 9.00913 0.791798C9.00913 1.01682 8.92864 1.19453 8.76765 1.32492C8.60775 1.45426 8.38598 1.51893 8.10233 1.51893H7.67029ZM7.67029 1.13565H8.11055C8.24087 1.13565 8.33998 1.1062 8.40789 1.04732C8.47688 0.988433 8.51138 0.904311 8.51138 0.794953C8.51138 0.68244 8.47688 0.591483 8.40789 0.522082C8.33889 0.452681 8.24361 0.41693 8.12205 0.414827H7.67029V1.13565Z" fill="#002849"/>
<path d="M10.261 2.32808C10.2391 2.28707 10.2232 2.23607 10.2133 2.17508C10.0983 2.29811 9.94885 2.35962 9.76487 2.35962C9.59073 2.35962 9.44617 2.31125 9.33118 2.21451C9.21728 2.11777 9.16033 1.99579 9.16033 1.84858C9.16033 1.66772 9.22987 1.52892 9.36896 1.43218C9.50914 1.33544 9.7112 1.28654 9.97514 1.28549H10.1936V1.1877C10.1936 1.10883 10.1723 1.04574 10.1296 0.998423C10.0879 0.951104 10.0217 0.927445 9.93078 0.927445C9.85084 0.927445 9.78786 0.945847 9.74187 0.98265C9.69697 1.01945 9.67451 1.06993 9.67451 1.13407H9.19976C9.19976 1.03523 9.23152 0.943743 9.29504 0.859621C9.35856 0.775499 9.44836 0.709779 9.56445 0.662461C9.68054 0.61409 9.81086 0.589905 9.95543 0.589905C10.1745 0.589905 10.348 0.643007 10.4762 0.749211C10.6054 0.854364 10.67 1.00263 10.67 1.19401V1.93375C10.6711 2.09569 10.6947 2.21819 10.7407 2.30126V2.32808H10.261ZM9.86836 2.01104C9.93845 2.01104 10.0031 1.99632 10.0622 1.96688C10.1213 1.93638 10.1652 1.8959 10.1936 1.84543V1.55205H10.0162C9.77855 1.55205 9.65206 1.63091 9.63673 1.78864L9.63509 1.81546C9.63509 1.87224 9.6559 1.91903 9.69751 1.95584C9.73913 1.99264 9.79608 2.01104 9.86836 2.01104Z" fill="#002849"/>
<path d="M10.8984 1.46215C10.8984 1.20032 10.963 0.989485 11.0923 0.829653C11.2226 0.669821 11.3978 0.589905 11.618 0.589905C11.8129 0.589905 11.9646 0.654048 12.073 0.782334L12.0927 0.621451H12.5231V2.27129C12.5231 2.42061 12.4875 2.55047 12.4163 2.66088C12.3462 2.77129 12.2471 2.85542 12.119 2.91325C11.9909 2.97108 11.8408 3 11.6689 3C11.5386 3 11.4115 2.97476 11.2878 2.92429C11.164 2.87487 11.0704 2.81073 11.0069 2.73186L11.2171 2.45426C11.3354 2.58149 11.4789 2.64511 11.6475 2.64511C11.7735 2.64511 11.8715 2.61251 11.9416 2.54732C12.0117 2.48318 12.0467 2.39169 12.0467 2.27287V2.18139C11.9372 2.30021 11.7932 2.35962 11.6147 2.35962C11.4011 2.35962 11.2281 2.27971 11.0956 2.11987C10.9641 1.95899 10.8984 1.74606 10.8984 1.48107V1.46215ZM11.3732 1.49527C11.3732 1.64984 11.4055 1.77129 11.4701 1.85962C11.5347 1.9469 11.6234 1.99054 11.7362 1.99054C11.8808 1.99054 11.9843 1.93849 12.0467 1.83438V1.11672C11.9832 1.01262 11.8808 0.960568 11.7395 0.960568C11.6256 0.960568 11.5358 1.00526 11.4701 1.09464C11.4055 1.18402 11.3732 1.31756 11.3732 1.49527Z" fill="#002849"/>
<path d="M13.6403 2.35962C13.3796 2.35962 13.1671 2.28286 13.0029 2.12934C12.8397 1.97581 12.7581 1.77129 12.7581 1.51577V1.47161C12.7581 1.30021 12.7926 1.14721 12.8616 1.01262C12.9306 0.876972 13.0281 0.772871 13.154 0.700315C13.281 0.626709 13.4256 0.589905 13.5877 0.589905C13.8308 0.589905 14.0219 0.663512 14.161 0.810726C14.3012 0.957939 14.3713 1.16667 14.3713 1.43691V1.62303H13.2394C13.2548 1.73449 13.3008 1.82387 13.3774 1.89117C13.4552 1.95846 13.5532 1.99211 13.6715 1.99211C13.8544 1.99211 13.9973 1.9285 14.1002 1.80126L14.3335 2.05205C14.2623 2.14879 14.1659 2.2245 14.0444 2.27918C13.9228 2.33281 13.7881 2.35962 13.6403 2.35962ZM13.586 0.958991C13.4919 0.958991 13.4152 0.989485 13.3561 1.05047C13.298 1.11146 13.2608 1.19874 13.2444 1.3123H13.9047V1.27603C13.9025 1.17508 13.8741 1.09727 13.8193 1.04259C13.7646 0.986856 13.6868 0.958991 13.586 0.958991Z" fill="#002849"/>
<path d="M16.2753 2.32808H15.9763L15.1221 0.545741L14.8001 2.32808H14.4896L14.9052 0.0315457H15.2042L16.0601 1.82177L16.3837 0.0315457H16.6909L16.2753 2.32808Z" fill="#002849"/>
<path d="M17.7062 0.589905C17.8552 0.592008 17.9827 0.630915 18.089 0.706625C18.1952 0.782334 18.2735 0.886961 18.3239 1.0205C18.3754 1.153 18.3929 1.29811 18.3765 1.45584L18.3732 1.49054C18.3524 1.65668 18.3009 1.80705 18.2187 1.94164C18.1366 2.07518 18.0304 2.17928 17.9001 2.25394C17.7697 2.3286 17.6268 2.36383 17.4713 2.35962C17.3234 2.35752 17.1959 2.31861 17.0885 2.2429C16.9823 2.16719 16.9045 2.06414 16.8553 1.93375C16.806 1.80336 16.7885 1.65983 16.8027 1.50315C16.8191 1.3265 16.869 1.16772 16.9522 1.02681C17.0354 0.88591 17.1422 0.777077 17.2725 0.700315C17.4039 0.622503 17.5485 0.585699 17.7062 0.589905ZM17.1017 1.50473C17.094 1.57098 17.094 1.63985 17.1017 1.71136C17.1126 1.83544 17.151 1.93428 17.2167 2.00789C17.2835 2.08149 17.3722 2.11987 17.4828 2.12303C17.5814 2.12618 17.6723 2.10305 17.7555 2.05363C17.8387 2.00315 17.9088 1.92744 17.9658 1.8265C18.0227 1.72555 18.0594 1.61356 18.0758 1.49054C18.0846 1.3938 18.0862 1.3123 18.0808 1.24606C18.0676 1.11882 18.0276 1.0184 17.9608 0.944795C17.894 0.871188 17.8053 0.832282 17.6947 0.828076C17.5414 0.824921 17.4111 0.882755 17.3037 1.00158C17.1964 1.1204 17.1302 1.27603 17.105 1.46845L17.1017 1.50473Z" fill="#002849"/>
<path d="M20.1261 1.92429L20.6928 0.621451H21L20.1901 2.32808H19.9486L19.7646 1.03785L19.124 2.32808H18.8825L18.6903 0.621451H18.9745L19.0829 1.89274L19.7137 0.621451H19.9536L20.1261 1.92429Z" fill="#002849"/>
</svg>
