<svg width="169" height="26" viewBox="0 0 169 26" fill="none" xmlns="http://www.w3.org/2000/svg">
<path d="M10.9148 14.9639C10.9148 14.2168 10.6512 13.6455 10.1238 13.25C9.59647 12.8457 8.64725 12.4238 7.27615 11.9844C5.90506 11.5361 4.81961 11.0967 4.01981 10.666C1.84012 9.48828 0.750275 7.90186 0.750275 5.90674C0.750275 4.86963 1.04031 3.94678 1.62039 3.13818C2.20926 2.3208 3.04861 1.68359 4.13846 1.22656C5.23709 0.769531 6.46756 0.541016 7.82986 0.541016C9.20096 0.541016 10.4226 0.791504 11.4949 1.29248C12.5672 1.78467 13.3977 2.4834 13.9866 3.38867C14.5843 4.29395 14.8831 5.32227 14.8831 6.47363H10.928C10.928 5.59473 10.6512 4.91357 10.0974 4.43018C9.54373 3.93799 8.7659 3.69189 7.76395 3.69189C6.79715 3.69189 6.04568 3.89844 5.50955 4.31152C4.97342 4.71582 4.70535 5.25195 4.70535 5.91992C4.70535 6.54395 5.01736 7.06689 5.64139 7.48877C6.2742 7.91064 7.20145 8.30615 8.42313 8.67529C10.6731 9.35205 12.3123 10.1914 13.3406 11.1934C14.3689 12.1953 14.8831 13.4434 14.8831 14.9375C14.8831 16.5986 14.2547 17.9038 12.9978 18.853C11.741 19.7935 10.0491 20.2637 7.92215 20.2637C6.44559 20.2637 5.10086 19.9956 3.88797 19.4595C2.67508 18.9146 1.74783 18.1719 1.10623 17.2314C0.473419 16.291 0.157013 15.2012 0.157013 13.9619H4.12527C4.12527 16.0801 5.3909 17.1392 7.92215 17.1392C8.86258 17.1392 9.59647 16.9502 10.1238 16.5723C10.6512 16.1855 10.9148 15.6494 10.9148 14.9639ZM25.0482 20C24.8724 19.6572 24.7449 19.231 24.6658 18.7212C23.743 19.7495 22.5433 20.2637 21.0667 20.2637C19.6693 20.2637 18.5091 19.8594 17.5863 19.0508C16.6722 18.2422 16.2152 17.2227 16.2152 15.9922C16.2152 14.4805 16.7733 13.3203 17.8895 12.5117C19.0145 11.7031 20.6361 11.2944 22.7542 11.2856H24.5076V10.4683C24.5076 9.80908 24.3363 9.28174 23.9935 8.88623C23.6595 8.49072 23.1278 8.29297 22.3983 8.29297C21.7567 8.29297 21.2513 8.44678 20.8821 8.75439C20.5218 9.06201 20.3416 9.48389 20.3416 10.02H16.5316C16.5316 9.19385 16.7864 8.4292 17.2962 7.72607C17.806 7.02295 18.5267 6.47363 19.4583 6.07812C20.39 5.67383 21.4359 5.47168 22.596 5.47168C24.3538 5.47168 25.7469 5.91553 26.7752 6.80322C27.8123 7.68213 28.3309 8.92139 28.3309 10.521V16.7041C28.3397 18.0576 28.5286 19.0815 28.8978 19.7759V20H25.0482ZM21.8973 17.3501C22.4598 17.3501 22.9783 17.2271 23.4529 16.981C23.9276 16.7261 24.2791 16.3877 24.5076 15.9658V13.5137H23.0838C21.1766 13.5137 20.1614 14.1729 20.0384 15.4912L20.0252 15.7153C20.0252 16.1899 20.1922 16.5811 20.5262 16.8887C20.8602 17.1963 21.3172 17.3501 21.8973 17.3501ZM35.8461 15.3462L38.496 5.73535H42.4774L37.6654 20H34.0267L29.2147 5.73535H33.1962L35.8461 15.3462ZM50.0058 20.2637C47.914 20.2637 46.2089 19.6221 44.8905 18.3389C43.581 17.0557 42.9262 15.3462 42.9262 13.2104V12.8413C42.9262 11.4087 43.203 10.1299 43.7567 9.00488C44.3105 7.87109 45.0927 7.00098 46.1034 6.39453C47.123 5.7793 48.2831 5.47168 49.5839 5.47168C51.5351 5.47168 53.0688 6.08691 54.185 7.31738C55.31 8.54785 55.8725 10.2925 55.8725 12.5513V14.1069H46.789C46.912 15.0386 47.2812 15.7856 47.8964 16.3481C48.5204 16.9106 49.307 17.1919 50.2563 17.1919C51.724 17.1919 52.871 16.6602 53.6972 15.5967L55.5692 17.6929C54.998 18.5015 54.2245 19.1343 53.2489 19.5913C52.2733 20.0396 51.1923 20.2637 50.0058 20.2637ZM49.5707 8.55664C48.8148 8.55664 48.1996 8.81152 47.725 9.32129C47.2592 9.83105 46.9604 10.5605 46.8285 11.5098H52.1283V11.2065C52.1107 10.3628 51.8822 9.7124 51.4428 9.25537C51.0033 8.78955 50.3793 8.55664 49.5707 8.55664ZM61.7133 13.2368V20H57.7582V0.804688H65.2465C66.6879 0.804688 67.9536 1.06836 69.0434 1.5957C70.142 2.12305 70.9858 2.87451 71.5746 3.8501C72.1635 4.81689 72.4579 5.91992 72.4579 7.15918C72.4579 9.04004 71.812 10.5254 70.52 11.6152C69.2368 12.6963 67.457 13.2368 65.1806 13.2368H61.7133ZM61.7133 10.0332H65.2465C66.2924 10.0332 67.0878 9.78711 67.6328 9.29492C68.1865 8.80273 68.4633 8.09961 68.4633 7.18555C68.4633 6.24512 68.1865 5.48486 67.6328 4.90479C67.079 4.32471 66.3144 4.02588 65.3388 4.0083H61.7133V10.0332ZM82.5044 20C82.3286 19.6572 82.2012 19.231 82.1221 18.7212C81.1992 19.7495 79.9995 20.2637 78.5229 20.2637C77.1255 20.2637 75.9653 19.8594 75.0425 19.0508C74.1284 18.2422 73.6714 17.2227 73.6714 15.9922C73.6714 14.4805 74.2295 13.3203 75.3457 12.5117C76.4707 11.7031 78.0923 11.2944 80.2104 11.2856H81.9639V10.4683C81.9639 9.80908 81.7925 9.28174 81.4497 8.88623C81.1157 8.49072 80.584 8.29297 79.8545 8.29297C79.2129 8.29297 78.7075 8.44678 78.3384 8.75439C77.978 9.06201 77.7978 9.48389 77.7978 10.02H73.9878C73.9878 9.19385 74.2427 8.4292 74.7524 7.72607C75.2622 7.02295 75.9829 6.47363 76.9145 6.07812C77.8462 5.67383 78.8921 5.47168 80.0522 5.47168C81.81 5.47168 83.2031 5.91553 84.2314 6.80322C85.2685 7.68213 85.7871 8.92139 85.7871 10.521V16.7041C85.7959 18.0576 85.9848 19.0815 86.354 19.7759V20H82.5044ZM79.3535 17.3501C79.916 17.3501 80.4346 17.2271 80.9092 16.981C81.3838 16.7261 81.7353 16.3877 81.9639 15.9658V13.5137H80.54C78.6328 13.5137 77.6177 14.1729 77.4946 15.4912L77.4814 15.7153C77.4814 16.1899 77.6484 16.5811 77.9824 16.8887C78.3164 17.1963 78.7734 17.3501 79.3535 17.3501ZM87.6201 12.7622C87.6201 10.5737 88.1387 8.81152 89.1758 7.47559C90.2217 6.13965 91.628 5.47168 93.3946 5.47168C94.959 5.47168 96.1763 6.00781 97.0464 7.08008L97.2046 5.73535H100.659V19.5254C100.659 20.7734 100.373 21.8589 99.8018 22.7817C99.2393 23.7046 98.4439 24.4077 97.4156 24.8911C96.3872 25.3745 95.1831 25.6162 93.8033 25.6162C92.7574 25.6162 91.7378 25.4053 90.7447 24.9834C89.7515 24.5703 89 24.0342 88.4903 23.375L90.1778 21.0547C91.127 22.1182 92.2784 22.6499 93.6319 22.6499C94.6426 22.6499 95.4292 22.3774 95.9917 21.8325C96.5542 21.2964 96.8355 20.5317 96.8355 19.5386V18.7739C95.9566 19.7671 94.8008 20.2637 93.3682 20.2637C91.6543 20.2637 90.2657 19.5957 89.2022 18.2598C88.1475 16.915 87.6201 15.1353 87.6201 12.9204V12.7622ZM91.4302 13.0391C91.4302 14.3311 91.6895 15.3462 92.208 16.0845C92.7266 16.814 93.4385 17.1787 94.3438 17.1787C95.5039 17.1787 96.3345 16.7437 96.8355 15.8735V9.875C96.3257 9.00488 95.5039 8.56982 94.3701 8.56982C93.4561 8.56982 92.7354 8.94336 92.208 9.69043C91.6895 10.4375 91.4302 11.5537 91.4302 13.0391ZM109.624 20.2637C107.532 20.2637 105.827 19.6221 104.509 18.3389C103.199 17.0557 102.544 15.3462 102.544 13.2104V12.8413C102.544 11.4087 102.821 10.1299 103.375 9.00488C103.929 7.87109 104.711 7.00098 105.722 6.39453C106.741 5.7793 107.901 5.47168 109.202 5.47168C111.153 5.47168 112.687 6.08691 113.803 7.31738C114.928 8.54785 115.491 10.2925 115.491 12.5513V14.1069H106.407C106.53 15.0386 106.899 15.7856 107.515 16.3481C108.139 16.9106 108.925 17.1919 109.875 17.1919C111.342 17.1919 112.489 16.6602 113.315 15.5967L115.188 17.6929C114.616 18.5015 113.843 19.1343 112.867 19.5913C111.892 20.0396 110.811 20.2637 109.624 20.2637ZM109.189 8.55664C108.433 8.55664 107.818 8.81152 107.343 9.32129C106.878 9.83105 106.579 10.5605 106.447 11.5098H111.747V11.2065C111.729 10.3628 111.501 9.7124 111.061 9.25537C110.622 8.78955 109.998 8.55664 109.189 8.55664ZM130.771 20H128.372L121.516 5.10254L118.932 20H116.441L119.776 0.804688H122.175L129.044 15.7681L131.641 0.804688H134.107L130.771 20ZM142.255 5.47168C143.45 5.48926 144.474 5.81445 145.326 6.44727C146.179 7.08008 146.807 7.95459 147.212 9.0708C147.625 10.1782 147.765 11.3911 147.633 12.7095L147.607 12.9995C147.44 14.3882 147.027 15.645 146.368 16.77C145.709 17.8862 144.856 18.7563 143.81 19.3804C142.764 20.0044 141.617 20.2988 140.369 20.2637C139.183 20.2461 138.159 19.9209 137.298 19.2881C136.445 18.6553 135.821 17.7939 135.425 16.7041C135.03 15.6143 134.889 14.4146 135.004 13.105C135.135 11.6284 135.535 10.3013 136.203 9.12354C136.871 7.9458 137.728 7.03613 138.774 6.39453C139.829 5.74414 140.989 5.43652 142.255 5.47168ZM137.403 13.1182C137.341 13.6719 137.341 14.2476 137.403 14.8452C137.491 15.8823 137.798 16.7085 138.326 17.3237C138.862 17.939 139.574 18.2598 140.462 18.2861C141.253 18.3125 141.982 18.1191 142.65 17.7061C143.318 17.2842 143.881 16.6514 144.338 15.8076C144.795 14.9639 145.089 14.0278 145.221 12.9995C145.291 12.1909 145.304 11.5098 145.26 10.9561C145.155 9.89258 144.834 9.05322 144.298 8.43799C143.762 7.82275 143.05 7.49756 142.162 7.4624C140.932 7.43604 139.886 7.91943 139.025 8.9126C138.163 9.90576 137.631 11.2065 137.429 12.8149L137.403 13.1182ZM161.674 16.625L166.223 5.73535H168.688L162.189 20H160.251L158.774 9.21582L153.633 20H151.695L150.152 5.73535H152.433L153.303 16.3613L158.365 5.73535H160.29L161.674 16.625Z" fill="#002849"/>
</svg>
