<svg width="113" height="17" viewBox="0 0 113 17" fill="none" xmlns="http://www.w3.org/2000/svg">
<path d="M7.17188 9.61523C7.17188 9.11719 6.99609 8.73633 6.64453 8.47266C6.29297 8.20312 5.66016 7.92188 4.74609 7.62891C3.83203 7.33008 3.1084 7.03711 2.5752 6.75C1.12207 5.96484 0.395508 4.90723 0.395508 3.57715C0.395508 2.88574 0.588867 2.27051 0.975586 1.73145C1.36816 1.18652 1.92773 0.761719 2.6543 0.457031C3.38672 0.152344 4.20703 0 5.11523 0C6.0293 0 6.84375 0.166992 7.55859 0.500977C8.27344 0.829102 8.82715 1.29492 9.21973 1.89844C9.61816 2.50195 9.81738 3.1875 9.81738 3.95508H7.18066C7.18066 3.36914 6.99609 2.91504 6.62695 2.59277C6.25781 2.26465 5.73926 2.10059 5.07129 2.10059C4.42676 2.10059 3.92578 2.23828 3.56836 2.51367C3.21094 2.7832 3.03223 3.14062 3.03223 3.58594C3.03223 4.00195 3.24023 4.35059 3.65625 4.63184C4.07812 4.91309 4.69629 5.17676 5.51074 5.42285C7.01074 5.87402 8.10352 6.43359 8.78906 7.10156C9.47461 7.76953 9.81738 8.60156 9.81738 9.59766C9.81738 10.7051 9.39844 11.5752 8.56055 12.208C7.72266 12.835 6.59473 13.1484 5.17676 13.1484C4.19238 13.1484 3.2959 12.9697 2.4873 12.6123C1.67871 12.249 1.06055 11.7539 0.632812 11.127C0.210938 10.5 0 9.77344 0 8.94727H2.64551C2.64551 10.3594 3.48926 11.0654 5.17676 11.0654C5.80371 11.0654 6.29297 10.9395 6.64453 10.6875C6.99609 10.4297 7.17188 10.0723 7.17188 9.61523Z" fill="white"/>
<path d="M16.5941 12.9727C16.4769 12.7441 16.392 12.46 16.3392 12.1201C15.724 12.8057 14.9242 13.1484 13.9398 13.1484C13.0082 13.1484 12.2347 12.8789 11.6195 12.3398C11.0101 11.8008 10.7054 11.1211 10.7054 10.3008C10.7054 9.29297 11.0775 8.51953 11.8216 7.98047C12.5716 7.44141 13.6527 7.16895 15.0648 7.16309H16.2337V6.61816C16.2337 6.17871 16.1195 5.82715 15.891 5.56348C15.6683 5.2998 15.3138 5.16797 14.8275 5.16797C14.3998 5.16797 14.0629 5.27051 13.8168 5.47559C13.5765 5.68066 13.4564 5.96191 13.4564 6.31934H10.9164C10.9164 5.76855 11.0863 5.25879 11.4261 4.79004C11.766 4.32129 12.2464 3.95508 12.8675 3.69141C13.4886 3.42188 14.1859 3.28711 14.9593 3.28711C16.1312 3.28711 17.0599 3.58301 17.7455 4.1748C18.4369 4.76074 18.7826 5.58691 18.7826 6.65332V10.7754C18.7884 11.6777 18.9144 12.3604 19.1605 12.8232V12.9727H16.5941ZM14.4935 11.2061C14.8685 11.2061 15.2142 11.124 15.5306 10.96C15.847 10.79 16.0814 10.5645 16.2337 10.2832V8.64844H15.2845C14.013 8.64844 13.3363 9.08789 13.2543 9.9668L13.2455 10.1162C13.2455 10.4326 13.3568 10.6934 13.5795 10.8984C13.8021 11.1035 14.1068 11.2061 14.4935 11.2061Z" fill="white"/>
<path d="M23.7927 9.87012L25.5593 3.46289H28.2136L25.0056 12.9727H22.5798L19.3718 3.46289H22.0261L23.7927 9.87012Z" fill="white"/>
<path d="M33.2325 13.1484C31.838 13.1484 30.7013 12.7207 29.8223 11.8652C28.9493 11.0098 28.5128 9.87012 28.5128 8.44629V8.2002C28.5128 7.24512 28.6973 6.39258 29.0665 5.64258C29.4356 4.88672 29.9571 4.30664 30.6309 3.90234C31.3106 3.49219 32.0841 3.28711 32.9512 3.28711C34.252 3.28711 35.2745 3.69727 36.0186 4.51758C36.7686 5.33789 37.1436 6.50098 37.1436 8.00684V9.04395H31.088C31.17 9.66504 31.4161 10.1631 31.8263 10.5381C32.2423 10.9131 32.7667 11.1006 33.3995 11.1006C34.378 11.1006 35.1427 10.7461 35.6934 10.0371L36.9415 11.4346C36.5606 11.9736 36.045 12.3955 35.3946 12.7002C34.7442 12.999 34.0235 13.1484 33.2325 13.1484ZM32.9425 5.34375C32.4386 5.34375 32.0284 5.51367 31.712 5.85352C31.4014 6.19336 31.2022 6.67969 31.1143 7.3125H34.6475V7.11035C34.6358 6.54785 34.4835 6.11426 34.1905 5.80957C33.8975 5.49902 33.4815 5.34375 32.9425 5.34375Z" fill="white"/>
<path d="M41.0375 8.46387V12.9727H38.4008V0.175781H43.393C44.3539 0.175781 45.1977 0.351562 45.9243 0.703125C46.6567 1.05469 47.2192 1.55566 47.6118 2.20605C48.0043 2.85059 48.2006 3.58594 48.2006 4.41211C48.2006 5.66602 47.77 6.65625 46.9086 7.38281C46.0532 8.10352 44.8666 8.46387 43.3491 8.46387H41.0375ZM41.0375 6.32812H43.393C44.0903 6.32812 44.6205 6.16406 44.9838 5.83594C45.353 5.50781 45.5375 5.03906 45.5375 4.42969C45.5375 3.80273 45.353 3.2959 44.9838 2.90918C44.6147 2.52246 44.1049 2.32324 43.4545 2.31152H41.0375V6.32812Z" fill="white"/>
<path d="M54.8982 12.9727C54.7811 12.7441 54.6961 12.46 54.6434 12.1201C54.0281 12.8057 53.2283 13.1484 52.2439 13.1484C51.3123 13.1484 50.5389 12.8789 49.9236 12.3398C49.3143 11.8008 49.0096 11.1211 49.0096 10.3008C49.0096 9.29297 49.3816 8.51953 50.1258 7.98047C50.8758 7.44141 51.9568 7.16895 53.3689 7.16309H54.5379V6.61816C54.5379 6.17871 54.4236 5.82715 54.1951 5.56348C53.9725 5.2998 53.618 5.16797 53.1316 5.16797C52.7039 5.16797 52.367 5.27051 52.1209 5.47559C51.8807 5.68066 51.7605 5.96191 51.7605 6.31934H49.2205C49.2205 5.76855 49.3904 5.25879 49.7303 4.79004C50.0701 4.32129 50.5506 3.95508 51.1717 3.69141C51.7928 3.42188 52.49 3.28711 53.2635 3.28711C54.4354 3.28711 55.3641 3.58301 56.0496 4.1748C56.741 4.76074 57.0867 5.58691 57.0867 6.65332V10.7754C57.0926 11.6777 57.2186 12.3604 57.4646 12.8232V12.9727H54.8982ZM52.7977 11.2061C53.1727 11.2061 53.5184 11.124 53.8348 10.96C54.1512 10.79 54.3855 10.5645 54.5379 10.2832V8.64844H53.5887C52.3172 8.64844 51.6404 9.08789 51.5584 9.9668L51.5496 10.1162C51.5496 10.4326 51.6609 10.6934 51.8836 10.8984C52.1063 11.1035 52.4109 11.2061 52.7977 11.2061Z" fill="white"/>
<path d="M58.3088 8.14746C58.3088 6.68848 58.6545 5.51367 59.3459 4.62305C60.0431 3.73242 60.9806 3.28711 62.1584 3.28711C63.2013 3.28711 64.0128 3.64453 64.5929 4.35938L64.6984 3.46289H67.0011V12.6562C67.0011 13.4883 66.8107 14.2119 66.4298 14.8271C66.0548 15.4424 65.5246 15.9111 64.839 16.2334C64.1535 16.5557 63.3507 16.7168 62.4308 16.7168C61.7336 16.7168 61.0539 16.5762 60.3918 16.2949C59.7296 16.0195 59.2287 15.6621 58.8888 15.2227L60.0138 13.6758C60.6466 14.3848 61.4142 14.7393 62.3166 14.7393C62.9904 14.7393 63.5148 14.5576 63.8898 14.1943C64.2648 13.8369 64.4523 13.3271 64.4523 12.665V12.1553C63.8664 12.8174 63.0959 13.1484 62.1408 13.1484C60.9982 13.1484 60.0724 12.7031 59.3634 11.8125C58.6603 10.916 58.3088 9.72949 58.3088 8.25293V8.14746ZM60.8488 8.33203C60.8488 9.19336 61.0216 9.87012 61.3673 10.3623C61.713 10.8486 62.1877 11.0918 62.7912 11.0918C63.5646 11.0918 64.1183 10.8018 64.4523 10.2217V6.22266C64.1125 5.64258 63.5646 5.35254 62.8088 5.35254C62.1994 5.35254 61.7189 5.60156 61.3673 6.09961C61.0216 6.59766 60.8488 7.3418 60.8488 8.33203Z" fill="white"/>
<path d="M72.9781 13.1484C71.5835 13.1484 70.4468 12.7207 69.5679 11.8652C68.6948 11.0098 68.2583 9.87012 68.2583 8.44629V8.2002C68.2583 7.24512 68.4429 6.39258 68.812 5.64258C69.1812 4.88672 69.7027 4.30664 70.3765 3.90234C71.0562 3.49219 71.8296 3.28711 72.6968 3.28711C73.9976 3.28711 75.02 3.69727 75.7642 4.51758C76.5142 5.33789 76.8892 6.50098 76.8892 8.00684V9.04395H70.8335C70.9156 9.66504 71.1616 10.1631 71.5718 10.5381C71.9878 10.9131 72.5122 11.1006 73.145 11.1006C74.1236 11.1006 74.8882 10.7461 75.439 10.0371L76.687 11.4346C76.3062 11.9736 75.7906 12.3955 75.1402 12.7002C74.4898 12.999 73.7691 13.1484 72.9781 13.1484ZM72.688 5.34375C72.1841 5.34375 71.7739 5.51367 71.4575 5.85352C71.147 6.19336 70.9478 6.67969 70.8599 7.3125H74.3931V7.11035C74.3814 6.54785 74.229 6.11426 73.9361 5.80957C73.6431 5.49902 73.2271 5.34375 72.688 5.34375Z" fill="white"/>
<path d="M87.0761 12.9727H85.4764L80.9061 3.04102L79.1835 12.9727H77.5223L79.746 0.175781H81.3456L85.9247 10.1514L87.6561 0.175781H89.2997L87.0761 12.9727Z" fill="white"/>
<path d="M94.7317 3.28711C95.5286 3.29883 96.2112 3.51562 96.7795 3.9375C97.3479 4.35938 97.7668 4.94238 98.0364 5.68652C98.3118 6.4248 98.4055 7.2334 98.3176 8.1123L98.3 8.30566C98.1887 9.23145 97.9133 10.0693 97.4739 10.8193C97.0344 11.5635 96.4661 12.1436 95.7688 12.5596C95.0715 12.9756 94.3069 13.1719 93.4748 13.1484C92.6838 13.1367 92.0012 12.9199 91.427 12.498C90.8586 12.0762 90.4426 11.502 90.1789 10.7754C89.9153 10.0488 89.8215 9.24902 89.8977 8.37598C89.9856 7.3916 90.2522 6.50684 90.6975 5.72168C91.1428 4.93652 91.7141 4.33008 92.4114 3.90234C93.1145 3.46875 93.8879 3.26367 94.7317 3.28711ZM91.4973 8.38477C91.4563 8.75391 91.4563 9.1377 91.4973 9.53613C91.5559 10.2275 91.761 10.7783 92.1125 11.1885C92.47 11.5986 92.9446 11.8125 93.5364 11.8301C94.0637 11.8477 94.55 11.7188 94.9954 11.4434C95.4407 11.1621 95.8157 10.7402 96.1204 10.1777C96.425 9.61523 96.6213 8.99121 96.7092 8.30566C96.7561 7.7666 96.7649 7.3125 96.7356 6.94336C96.6653 6.23438 96.4514 5.6748 96.094 5.26465C95.7366 4.85449 95.262 4.6377 94.6702 4.61426C93.8498 4.59668 93.1526 4.91895 92.5784 5.58105C92.0041 6.24316 91.6497 7.11035 91.5149 8.18262L91.4973 8.38477Z" fill="white"/>
<path d="M107.678 10.7227L110.711 3.46289H112.354L108.021 12.9727H106.729L105.745 5.7832L102.317 12.9727H101.025L99.9967 3.46289H101.517L102.097 10.5469L105.472 3.46289H106.755L107.678 10.7227Z" fill="white"/>
</svg>
